<svg width="21" height="21" viewBox="0 0 21 21" fill="none" xmlns="http://www.w3.org/2000/svg">
<path d="M11.8125 15.0938L11.1562 15.0938V9.22852C11.1562 9.22163 11.1543 9.21506 11.1543 9.20784C11.1543 9.20063 11.1562 9.19441 11.1562 9.18752C11.1562 8.82527 10.8623 8.53127 10.5 8.53127H9.1875C8.82525 8.53127 8.53125 8.82527 8.53125 9.18752C8.53125 9.54977 8.82525 9.84377 9.1875 9.84377H9.84375V15.0938H9.1875C8.82525 15.0938 8.53125 15.3878 8.53125 15.75C8.53125 16.1123 8.82525 16.4063 9.1875 16.4063H11.8125C12.1748 16.4063 12.4688 16.1123 12.4688 15.75C12.4688 15.3878 12.1748 15.0938 11.8125 15.0938ZM10.5 7.21875C11.2248 7.21875 11.8125 6.63108 11.8125 5.90625C11.8125 5.18142 11.2248 4.59375 10.5 4.59375C9.77517 4.59375 9.1875 5.18142 9.1875 5.90625C9.1875 6.63108 9.77517 7.21875 10.5 7.21875ZM10.5 0C4.70105 0 0 4.70105 0 10.5C0 16.2993 4.70105 21 10.5 21C16.2993 21 21 16.2993 21 10.5C21 4.70105 16.2993 0 10.5 0ZM10.5 19.7082C5.43408 19.7082 1.3125 15.5659 1.3125 10.5C1.3125 5.43404 5.43408 1.31246 10.5 1.31246C15.5659 1.31246 19.6875 5.43406 19.6875 10.5C19.6875 15.5659 15.5659 19.7082 10.5 19.7082Z" fill="white"/>
</svg>
