<svg width="26" height="26" viewBox="0 0 26 26" fill="none" xmlns="http://www.w3.org/2000/svg">
<mask id="path-1-inside-1_753_9073" fill="white">
<path d="M9.93863 2.12522C9.65681 2.12522 9.38653 2.23718 9.18725 2.43646C8.98798 2.63574 8.87602 2.90601 8.87602 3.18784V7.96959C8.87602 8.25142 8.76407 8.5217 8.56479 8.72097C8.36551 8.92025 8.09523 9.03221 7.81341 9.03221H3.56296C3.28114 9.03221 3.01086 9.14416 2.81158 9.34344C2.6123 9.54272 2.50035 9.813 2.50035 10.0948V16.4386C2.50035 16.7204 2.6123 16.9907 2.81158 17.19C3.01086 17.3893 3.28114 17.5012 3.56296 17.5012H7.81341C8.09523 17.5012 8.36551 17.6132 8.56479 17.8125C8.76407 18.0117 8.87602 18.282 8.87602 18.5638V22.8143C8.87602 23.0961 8.98798 23.3664 9.18725 23.5657C9.38653 23.7649 9.65681 23.8769 9.93863 23.8769H16.3143C16.5961 23.8769 16.8664 23.7649 17.0657 23.5657C17.265 23.3664 17.3769 23.0961 17.3769 22.8143V18.5638C17.3769 18.282 17.4889 18.0117 17.6882 17.8125C17.8874 17.6132 18.1577 17.5012 18.4395 17.5012H22.69C22.9718 17.5012 23.2421 17.3893 23.4414 17.19C23.6406 16.9907 23.7526 16.7204 23.7526 16.4386V10.0629C23.7526 9.78112 23.6406 9.51084 23.4414 9.31156C23.2421 9.11228 22.9718 9.00033 22.69 9.00033H18.4395C18.1577 9.00033 17.8874 8.88837 17.6882 8.6891C17.4889 8.48982 17.3769 8.21954 17.3769 7.93771V3.18784C17.3769 2.90601 17.265 2.63574 17.0657 2.43646C16.8664 2.23718 16.5961 2.12522 16.3143 2.12522H9.93863ZM6.7508 3.18784C6.7508 2.34237 7.08666 1.53153 7.68449 0.933696C8.28233 0.335861 9.09317 0 9.93863 0H16.3143C17.1598 0 17.9706 0.335861 18.5685 0.933696C19.1663 1.53153 19.5021 2.34237 19.5021 3.18784V6.87298H22.69C23.5354 6.87298 24.3463 7.20884 24.9441 7.80667C25.542 8.40451 25.8778 9.21535 25.8778 10.0608V16.4365C25.8778 17.282 25.542 18.0928 24.9441 18.6906C24.3463 19.2885 23.5354 19.6243 22.69 19.6243H19.5021V22.8122C19.5021 23.6576 19.1663 24.4685 18.5685 25.0663C17.9706 25.6641 17.1598 26 16.3143 26H9.93863C9.09317 26 8.28233 25.6641 7.68449 25.0663C7.08666 24.4685 6.7508 23.6576 6.7508 22.8122V19.6243H3.56296C2.71749 19.6243 1.90665 19.2885 1.30882 18.6906C0.710983 18.0928 0.375122 17.282 0.375122 16.4365V10.0969C0.375122 9.25148 0.710983 8.44064 1.30882 7.8428C1.90665 7.24497 2.71749 6.90911 3.56296 6.90911H6.7508V3.18784Z"/>
</mask>
<path d="M9.93863 2.12522C9.65681 2.12522 9.38653 2.23718 9.18725 2.43646C8.98798 2.63574 8.87602 2.90601 8.87602 3.18784V7.96959C8.87602 8.25142 8.76407 8.5217 8.56479 8.72097C8.36551 8.92025 8.09523 9.03221 7.81341 9.03221H3.56296C3.28114 9.03221 3.01086 9.14416 2.81158 9.34344C2.6123 9.54272 2.50035 9.813 2.50035 10.0948V16.4386C2.50035 16.7204 2.6123 16.9907 2.81158 17.19C3.01086 17.3893 3.28114 17.5012 3.56296 17.5012H7.81341C8.09523 17.5012 8.36551 17.6132 8.56479 17.8125C8.76407 18.0117 8.87602 18.282 8.87602 18.5638V22.8143C8.87602 23.0961 8.98798 23.3664 9.18725 23.5657C9.38653 23.7649 9.65681 23.8769 9.93863 23.8769H16.3143C16.5961 23.8769 16.8664 23.7649 17.0657 23.5657C17.265 23.3664 17.3769 23.0961 17.3769 22.8143V18.5638C17.3769 18.282 17.4889 18.0117 17.6882 17.8125C17.8874 17.6132 18.1577 17.5012 18.4395 17.5012H22.69C22.9718 17.5012 23.2421 17.3893 23.4414 17.19C23.6406 16.9907 23.7526 16.7204 23.7526 16.4386V10.0629C23.7526 9.78112 23.6406 9.51084 23.4414 9.31156C23.2421 9.11228 22.9718 9.00033 22.69 9.00033H18.4395C18.1577 9.00033 17.8874 8.88837 17.6882 8.6891C17.4889 8.48982 17.3769 8.21954 17.3769 7.93771V3.18784C17.3769 2.90601 17.265 2.63574 17.0657 2.43646C16.8664 2.23718 16.5961 2.12522 16.3143 2.12522H9.93863ZM6.7508 3.18784C6.7508 2.34237 7.08666 1.53153 7.68449 0.933696C8.28233 0.335861 9.09317 0 9.93863 0H16.3143C17.1598 0 17.9706 0.335861 18.5685 0.933696C19.1663 1.53153 19.5021 2.34237 19.5021 3.18784V6.87298H22.69C23.5354 6.87298 24.3463 7.20884 24.9441 7.80667C25.542 8.40451 25.8778 9.21535 25.8778 10.0608V16.4365C25.8778 17.282 25.542 18.0928 24.9441 18.6906C24.3463 19.2885 23.5354 19.6243 22.69 19.6243H19.5021V22.8122C19.5021 23.6576 19.1663 24.4685 18.5685 25.0663C17.9706 25.6641 17.1598 26 16.3143 26H9.93863C9.09317 26 8.28233 25.6641 7.68449 25.0663C7.08666 24.4685 6.7508 23.6576 6.7508 22.8122V19.6243H3.56296C2.71749 19.6243 1.90665 19.2885 1.30882 18.6906C0.710983 18.0928 0.375122 17.282 0.375122 16.4365V10.0969C0.375122 9.25148 0.710983 8.44064 1.30882 7.8428C1.90665 7.24497 2.71749 6.90911 3.56296 6.90911H6.7508V3.18784Z" fill="#979797"/>
<path d="M9.93863 0V-6V0ZM19.5021 3.18784H25.5021H19.5021ZM19.5021 6.87298H13.5021V12.873H19.5021V6.87298ZM25.8778 16.4365H31.8778H25.8778ZM22.69 19.6243V25.6243V19.6243ZM19.5021 19.6243V13.6243H13.5021V19.6243H19.5021ZM19.5021 22.8122H25.5021H19.5021ZM9.93863 26V32V26ZM6.7508 19.6243H12.7508V13.6243H6.7508V19.6243ZM3.56296 19.6243V25.6243V19.6243ZM0.375122 16.4365H-5.62488H0.375122ZM6.7508 6.90911V12.9091H12.7508V6.90911H6.7508ZM9.93863 -3.87478C8.06552 -3.87478 6.26911 -3.13068 4.94461 -1.80618L13.4299 6.6791C12.504 7.60504 11.2481 8.12523 9.93863 8.12523V-3.87478ZM4.94461 -1.80618C3.62012 -0.481688 2.87602 1.31471 2.87602 3.18784H14.876C14.876 4.49731 14.3558 5.75316 13.4299 6.6791L4.94461 -1.80618ZM2.87602 3.18784V7.96959H14.876V3.18784H2.87602ZM2.87602 7.96959C2.87602 6.66012 3.39621 5.40428 4.32215 4.47833L12.8074 12.9636C14.1319 11.6391 14.876 9.84271 14.876 7.96959H2.87602ZM4.32215 4.47833C5.2481 3.55239 6.50394 3.03221 7.81341 3.03221V15.0322C9.68652 15.0322 11.4829 14.2881 12.8074 12.9636L4.32215 4.47833ZM7.81341 3.03221H3.56296V15.0322H7.81341V3.03221ZM3.56296 3.03221C1.68985 3.03221 -0.106557 3.77629 -1.43106 5.1008L7.05422 13.5861C6.12827 14.512 4.87243 15.0322 3.56296 15.0322V3.03221ZM-1.43106 5.1008C-2.75556 6.42529 -3.49965 8.2217 -3.49965 10.0948H8.50035C8.50035 11.4043 7.98016 12.6601 7.05422 13.5861L-1.43106 5.1008ZM-3.49965 10.0948V16.4386H8.50035V10.0948H-3.49965ZM-3.49965 16.4386C-3.49965 18.3117 -2.75555 20.1081 -1.43106 21.4326L7.05422 12.9474C7.98015 13.8733 8.50035 15.1291 8.50035 16.4386H-3.49965ZM-1.43106 21.4326C-0.106578 22.7571 1.68982 23.5012 3.56296 23.5012V11.5012C4.87245 11.5012 6.12829 12.0214 7.05422 12.9474L-1.43106 21.4326ZM3.56296 23.5012H7.81341V11.5012H3.56296V23.5012ZM7.81341 23.5012C6.50394 23.5012 5.2481 22.981 4.32215 22.0551L12.8074 13.5698C11.4829 12.2453 9.68652 11.5012 7.81341 11.5012V23.5012ZM4.32215 22.0551C3.39621 21.1292 2.87602 19.8733 2.87602 18.5638H14.876C14.876 16.6907 14.1319 14.8943 12.8074 13.5698L4.32215 22.0551ZM2.87602 18.5638V22.8143H14.876V18.5638H2.87602ZM2.87602 22.8143C2.87602 24.6874 3.62012 26.4838 4.94461 27.8083L13.4299 19.323C14.3558 20.249 14.876 21.5048 14.876 22.8143H2.87602ZM4.94461 27.8083C6.2691 29.1328 8.06549 29.8769 9.93863 29.8769V17.8769C11.2481 17.8769 12.504 18.3971 13.4299 19.323L4.94461 27.8083ZM9.93863 29.8769H16.3143V17.8769H9.93863V29.8769ZM16.3143 29.8769C18.1874 29.8769 19.9838 29.1328 21.3083 27.8083L12.823 19.323C13.749 18.3971 15.0048 17.8769 16.3143 17.8769V29.8769ZM21.3083 27.8083C22.6328 26.4838 23.3769 24.6874 23.3769 22.8143H11.3769C11.3769 21.5048 11.8971 20.249 12.823 19.323L21.3083 27.8083ZM23.3769 22.8143V18.5638H11.3769V22.8143H23.3769ZM23.3769 18.5638C23.3769 19.8733 22.8567 21.1291 21.9308 22.0551L13.4455 13.5698C12.121 14.8943 11.3769 16.6907 11.3769 18.5638H23.3769ZM21.9308 22.0551C21.0048 22.9811 19.749 23.5012 18.4395 23.5012V11.5012C16.5664 11.5012 14.77 12.2453 13.4455 13.5698L21.9308 22.0551ZM18.4395 23.5012H22.69V11.5012H18.4395V23.5012ZM22.69 23.5012C24.5631 23.5012 26.3595 22.7571 27.684 21.4326L19.1987 12.9474C20.1247 12.0214 21.3805 11.5012 22.69 11.5012V23.5012ZM27.684 21.4326C29.0085 20.1081 29.7526 18.3117 29.7526 16.4386H17.7526C17.7526 15.1291 18.2728 13.8733 19.1987 12.9474L27.684 21.4326ZM29.7526 16.4386V10.0629H17.7526V16.4386H29.7526ZM29.7526 10.0629C29.7526 8.18982 29.0085 6.39342 27.684 5.06892L19.1987 13.5542C18.2728 12.6283 17.7526 11.3724 17.7526 10.0629H29.7526ZM27.684 5.06892C26.3595 3.74443 24.5631 3.00033 22.69 3.00033V15.0003C21.3805 15.0003 20.1247 14.4801 19.1987 13.5542L27.684 5.06892ZM22.69 3.00033H18.4395V15.0003H22.69V3.00033ZM18.4395 3.00033C19.749 3.00033 21.0048 3.5205 21.9308 4.44645L13.4455 12.9317C14.77 14.2562 16.5664 15.0003 18.4395 15.0003V3.00033ZM21.9308 4.44645C22.8567 5.3724 23.3769 6.62825 23.3769 7.93771H11.3769C11.3769 9.81082 12.121 11.6072 13.4455 12.9317L21.9308 4.44645ZM23.3769 7.93771V3.18784H11.3769V7.93771H23.3769ZM23.3769 3.18784C23.3769 1.31473 22.6328 -0.481678 21.3083 -1.80618L12.823 6.6791C11.8971 5.75315 11.3769 4.4973 11.3769 3.18784H23.3769ZM21.3083 -1.80618C19.9838 -3.13069 18.1874 -3.87478 16.3143 -3.87478V8.12523C15.0048 8.12523 13.749 7.60504 12.823 6.6791L21.3083 -1.80618ZM16.3143 -3.87478H9.93863V8.12523H16.3143V-3.87478ZM12.7508 3.18784C12.7508 3.93367 12.4545 4.64895 11.9271 5.17634L3.44185 -3.30894C1.7188 -1.58589 0.750797 0.751073 0.750797 3.18784H12.7508ZM11.9271 5.17634C11.3997 5.70372 10.6845 6 9.93863 6V-6C7.50187 -6 5.16491 -5.032 3.44185 -3.30894L11.9271 5.17634ZM9.93863 6H16.3143V-6H9.93863V6ZM16.3143 6C15.5685 6 14.8532 5.70372 14.3258 5.17634L22.8111 -3.30894C21.088 -5.032 18.7511 -6 16.3143 -6V6ZM14.3258 5.17634C13.7984 4.64895 13.5021 3.93367 13.5021 3.18784L25.5021 3.18784C25.5021 0.751073 24.5341 -1.58589 22.8111 -3.30894L14.3258 5.17634ZM13.5021 3.18784V6.87298H25.5021V3.18784H13.5021ZM19.5021 12.873H22.69V0.872977H19.5021V12.873ZM22.69 12.873C21.9442 12.873 21.2289 12.5767 20.7015 12.0493L29.1868 3.56403C27.4637 1.84098 25.1267 0.872977 22.69 0.872977V12.873ZM20.7015 12.0493C20.1741 11.5219 19.8778 10.8066 19.8778 10.0608H31.8778C31.8778 7.62405 30.9098 5.28709 29.1868 3.56403L20.7015 12.0493ZM19.8778 10.0608V16.4365H31.8778V10.0608H19.8778ZM19.8778 16.4365C19.8778 15.6907 20.1741 14.9754 20.7015 14.448L29.1868 22.9333C30.9098 21.2102 31.8778 18.8733 31.8778 16.4365H19.8778ZM20.7015 14.448C21.2289 13.9206 21.9442 13.6243 22.69 13.6243V25.6243C25.1267 25.6243 27.4637 24.6563 29.1868 22.9333L20.7015 14.448ZM22.69 13.6243H19.5021V25.6243H22.69V13.6243ZM13.5021 19.6243V22.8122H25.5021V19.6243H13.5021ZM13.5021 22.8122C13.5021 22.0663 13.7984 21.351 14.3258 20.8237L22.8111 29.3089C24.5341 27.5859 25.5021 25.2489 25.5021 22.8122H13.5021ZM14.3258 20.8237C14.8532 20.2963 15.5685 20 16.3143 20V32C18.7511 32 21.088 31.032 22.8111 29.3089L14.3258 20.8237ZM16.3143 20H9.93863V32H16.3143V20ZM9.93863 20C10.6845 20 11.3997 20.2963 11.9271 20.8237L3.44185 29.3089C5.16491 31.032 7.50187 32 9.93863 32V20ZM11.9271 20.8237C12.4545 21.351 12.7508 22.0663 12.7508 22.8122H0.750797C0.750797 25.2489 1.7188 27.5859 3.44185 29.3089L11.9271 20.8237ZM12.7508 22.8122V19.6243H0.750797V22.8122H12.7508ZM6.7508 13.6243H3.56296V25.6243H6.7508V13.6243ZM3.56296 13.6243C4.30879 13.6243 5.02407 13.9206 5.55146 14.448L-2.93382 22.9333C-1.21077 24.6563 1.1262 25.6243 3.56296 25.6243L3.56296 13.6243ZM5.55146 14.448C6.07884 14.9754 6.37512 15.6907 6.37512 16.4365H-5.62488C-5.62488 18.8733 -4.65688 21.2102 -2.93382 22.9333L5.55146 14.448ZM6.37512 16.4365V10.0969H-5.62488V16.4365H6.37512ZM6.37512 10.0969C6.37512 10.8428 6.07884 11.5581 5.55146 12.0854L-2.93382 3.60016C-4.65688 5.32322 -5.62488 7.66018 -5.62488 10.0969H6.37512ZM5.55146 12.0854C5.02407 12.6128 4.30879 12.9091 3.56296 12.9091V0.909106C1.1262 0.909106 -1.21077 1.87711 -2.93382 3.60016L5.55146 12.0854ZM3.56296 12.9091H6.7508V0.909106H3.56296V12.9091ZM12.7508 6.90911V3.18784H0.750797V6.90911H12.7508Z" fill="#979797" mask="url(#path-1-inside-1_753_9073)"/>
</svg>
