<svg width="14" height="15" viewBox="0 0 14 15" fill="none" xmlns="http://www.w3.org/2000/svg">
<path d="M10.5003 8.08317H7.58366V10.9998C7.58366 11.3207 7.32116 11.5832 7.00033 11.5832C6.67949 11.5832 6.41699 11.3207 6.41699 10.9998V8.08317H3.50033C3.17949 8.08317 2.91699 7.82067 2.91699 7.49984C2.91699 7.179 3.17949 6.9165 3.50033 6.9165H6.41699V3.99984C6.41699 3.679 6.67949 3.4165 7.00033 3.4165C7.32116 3.4165 7.58366 3.679 7.58366 3.99984V6.9165H10.5003C10.8212 6.9165 11.0837 7.179 11.0837 7.49984C11.0837 7.82067 10.8212 8.08317 10.5003 8.08317Z" fill="#0075FF"/>
</svg>
