<svg width="24" height="24" viewBox="0 0 24 24" fill="none" xmlns="http://www.w3.org/2000/svg">
<path d="M20.2455 1.76709H3.75464V23.5585H20.2455V1.76709Z" fill="#D38D94"/>
<path d="M20.2454 1.76709H12V23.5585H20.2454V1.76709Z" fill="#C18089"/>
<path d="M13.1779 21.2026H10.822V23.5585H13.1779V21.2026Z" fill="#BFA993"/>
<path d="M13.1779 21.2026H12V23.5585H13.1779V21.2026Z" fill="#B29A7E"/>
<path d="M6.40492 23.5581C6.8928 23.5581 7.28838 23.1625 7.28838 22.6747C7.28838 22.3616 7.12516 22.0873 6.87972 21.9303C6.95209 21.8022 6.99391 21.6544 6.99391 21.4967C6.99391 21.0089 6.59838 20.6133 6.11045 20.6133C5.88386 20.6133 5.67784 20.6993 5.52152 20.8396C5.36514 20.6993 5.15913 20.6133 4.93258 20.6133C4.70599 20.6133 4.49997 20.6993 4.34364 20.8396C4.18727 20.6993 3.98125 20.6133 3.7547 20.6133C3.26683 20.6133 2.87125 21.0088 2.87125 21.4967C2.87125 21.6545 2.91306 21.8022 2.98544 21.9303C2.73995 22.0873 2.57678 22.3616 2.57678 22.6747C2.57678 23.1625 2.97231 23.5581 3.46024 23.5581H6.40492Z" fill="#95D5A7"/>
<path d="M20.5399 23.5581C21.0278 23.5581 21.4234 23.1625 21.4234 22.6747C21.4234 22.3616 21.2601 22.0873 21.0146 21.9303C21.0871 21.8022 21.1289 21.6544 21.1289 21.4967C21.1289 21.0089 20.7334 20.6133 20.2455 20.6133C20.0188 20.6133 19.8129 20.6993 19.6565 20.8396C19.5002 20.6993 19.2942 20.6133 19.0676 20.6133C18.841 20.6133 18.635 20.6993 18.4787 20.8396C18.3223 20.6993 18.1163 20.6133 17.8897 20.6133C17.4018 20.6133 17.0063 21.0088 17.0063 21.4967C17.0063 21.6545 17.0481 21.8022 17.1205 21.9303C16.8751 22.0873 16.7118 22.3616 16.7118 22.6747C16.7118 23.1625 17.1073 23.5581 17.5952 23.5581H20.5399Z" fill="#80CB93"/>
<path d="M12.0001 23.9998C11.7561 23.9998 11.5583 23.8021 11.5583 23.5581V22.3802C11.5583 22.1362 11.7561 21.9385 12.0001 21.9385C12.244 21.9385 12.4418 22.1362 12.4418 22.3802V23.5581C12.4418 23.8021 12.244 23.9998 12.0001 23.9998Z" fill="#88888F"/>
<path d="M7.2884 4.71143H6.11047V6.47828H7.2884V4.71143Z" fill="#D1E5F5"/>
<path d="M6.11047 6.4787H7.2884V5.30078L6.11047 6.4787Z" fill="#B4D8F1"/>
<path d="M7.28833 6.92003H6.1104C5.86647 6.92003 5.6687 6.72231 5.6687 6.47832C5.6687 6.23434 5.86647 6.03662 6.1104 6.03662H7.28833C7.53226 6.03662 7.73003 6.23434 7.73003 6.47832C7.73003 6.72231 7.53226 6.92003 7.28833 6.92003Z" fill="#C18089"/>
<path d="M10.7927 4.71143H9.61475V6.47828H10.7927V4.71143Z" fill="#D1E5F5"/>
<path d="M9.61475 6.4787H10.7927V5.30078L9.61475 6.4787Z" fill="#B4D8F1"/>
<path d="M10.7926 6.92003H9.61468C9.37074 6.92003 9.17297 6.72231 9.17297 6.47832C9.17297 6.23434 9.37074 6.03662 9.61468 6.03662H10.7926C11.0365 6.03662 11.2343 6.23434 11.2343 6.47832C11.2343 6.72231 11.0365 6.92003 10.7926 6.92003Z" fill="#C18089"/>
<path d="M14.3264 4.71143H13.1484V6.47828H14.3264V4.71143Z" fill="#D1E5F5"/>
<path d="M13.1484 6.4787H14.3263V5.30078L13.1484 6.4787Z" fill="#B4D8F1"/>
<path d="M14.3264 6.92003H13.1485C12.9045 6.92003 12.7068 6.72231 12.7068 6.47832C12.7068 6.23434 12.9045 6.03662 13.1485 6.03662H14.3264C14.5704 6.03662 14.7681 6.23434 14.7681 6.47832C14.7681 6.72231 14.5704 6.92003 14.3264 6.92003Z" fill="#AD717B"/>
<path d="M17.8602 4.71143H16.6823V6.47828H17.8602V4.71143Z" fill="#D1E5F5"/>
<path d="M16.6823 6.4787H17.8602V5.30078L16.6823 6.4787Z" fill="#B4D8F1"/>
<path d="M17.8601 6.92003H16.6822C16.4382 6.92003 16.2405 6.72231 16.2405 6.47832C16.2405 6.23434 16.4382 6.03662 16.6822 6.03662H17.8601C18.1041 6.03662 18.3018 6.23434 18.3018 6.47832C18.3018 6.72231 18.1041 6.92003 17.8601 6.92003Z" fill="#AD717B"/>
<path d="M7.2884 8.83447H6.11047V10.6013H7.2884V8.83447Z" fill="#D1E5F5"/>
<path d="M6.11047 10.6013H7.2884V9.42334L6.11047 10.6013Z" fill="#B4D8F1"/>
<path d="M7.28833 11.0431H6.1104C5.86647 11.0431 5.6687 10.8454 5.6687 10.6014C5.6687 10.3574 5.86647 10.1597 6.1104 10.1597H7.28833C7.53226 10.1597 7.73003 10.3574 7.73003 10.6014C7.73003 10.8454 7.53226 11.0431 7.28833 11.0431Z" fill="#C18089"/>
<path d="M10.7927 8.83447H9.61475V10.6013H10.7927V8.83447Z" fill="#D1E5F5"/>
<path d="M9.61475 10.6013H10.7927V9.42334L9.61475 10.6013Z" fill="#B4D8F1"/>
<path d="M10.7926 11.0431H9.61468C9.37074 11.0431 9.17297 10.8454 9.17297 10.6014C9.17297 10.3574 9.37074 10.1597 9.61468 10.1597H10.7926C11.0365 10.1597 11.2343 10.3574 11.2343 10.6014C11.2343 10.8454 11.0365 11.0431 10.7926 11.0431Z" fill="#C18089"/>
<path d="M14.3264 8.83447H13.1484V10.6013H14.3264V8.83447Z" fill="#D1E5F5"/>
<path d="M13.1484 10.6013H14.3263V9.42334L13.1484 10.6013Z" fill="#B4D8F1"/>
<path d="M14.3264 11.0431H13.1485C12.9045 11.0431 12.7068 10.8454 12.7068 10.6014C12.7068 10.3574 12.9045 10.1597 13.1485 10.1597H14.3264C14.5704 10.1597 14.7681 10.3574 14.7681 10.6014C14.7681 10.8454 14.5704 11.0431 14.3264 11.0431Z" fill="#AD717B"/>
<path d="M17.8602 8.83447H16.6823V10.6013H17.8602V8.83447Z" fill="#D1E5F5"/>
<path d="M16.6823 10.6013H17.8602V9.42334L16.6823 10.6013Z" fill="#B4D8F1"/>
<path d="M7.2884 12.957H6.11047V14.7239H7.2884V12.957Z" fill="#D1E5F5"/>
<path d="M10.7927 12.957H9.61475V14.7239H10.7927V12.957Z" fill="#D1E5F5"/>
<path d="M9.61475 14.7238H10.7927V13.5459L9.61475 14.7238Z" fill="#B4D8F1"/>
<path d="M10.7926 15.1656H9.61468C9.37074 15.1656 9.17297 14.9679 9.17297 14.7239C9.17297 14.4799 9.37074 14.2822 9.61468 14.2822H10.7926C11.0365 14.2822 11.2343 14.4799 11.2343 14.7239C11.2343 14.9679 11.0365 15.1656 10.7926 15.1656Z" fill="#C18089"/>
<path d="M7.28833 15.1656H6.1104C5.86647 15.1656 5.6687 14.9679 5.6687 14.7239C5.6687 14.4799 5.86647 14.2822 6.1104 14.2822H7.28833C7.53226 14.2822 7.73003 14.4799 7.73003 14.7239C7.73003 14.9679 7.53226 15.1656 7.28833 15.1656Z" fill="#C18089"/>
<path d="M14.3264 12.957H13.1484V14.7239H14.3264V12.957Z" fill="#D1E5F5"/>
<path d="M13.1484 14.7238H14.3263V13.5459L13.1484 14.7238Z" fill="#B4D8F1"/>
<path d="M14.3264 15.1656H13.1485C12.9045 15.1656 12.7068 14.9679 12.7068 14.7239C12.7068 14.4799 12.9045 14.2822 13.1485 14.2822H14.3264C14.5704 14.2822 14.7681 14.4799 14.7681 14.7239C14.7682 14.9679 14.5704 15.1656 14.3264 15.1656Z" fill="#AD717B"/>
<path d="M17.8602 12.957H16.6823V14.7239H17.8602V12.957Z" fill="#D1E5F5"/>
<path d="M16.6823 14.7238H17.8602V13.5459L16.6823 14.7238Z" fill="#B4D8F1"/>
<path d="M17.8601 15.1656H16.6822C16.4382 15.1656 16.2405 14.9679 16.2405 14.7239C16.2405 14.4799 16.4382 14.2822 16.6822 14.2822H17.8601C18.1041 14.2822 18.3018 14.4799 18.3018 14.7239C18.3018 14.9679 18.1041 15.1656 17.8601 15.1656Z" fill="#AD717B"/>
<path d="M7.2884 17.0796H6.11047V18.8464H7.2884V17.0796Z" fill="#D1E5F5"/>
<path d="M6.11047 18.8468H7.2884V17.6689L6.11047 18.8468Z" fill="#B4D8F1"/>
<path d="M7.28833 19.2882H6.1104C5.86647 19.2882 5.6687 19.0905 5.6687 18.8465C5.6687 18.6025 5.86647 18.4048 6.1104 18.4048H7.28833C7.53226 18.4048 7.73003 18.6025 7.73003 18.8465C7.73003 19.0905 7.53226 19.2882 7.28833 19.2882Z" fill="#C18089"/>
<path d="M10.7927 17.0796H9.61475V18.8464H10.7927V17.0796Z" fill="#D1E5F5"/>
<path d="M9.61475 18.8468H10.7927V17.6689L9.61475 18.8468Z" fill="#B4D8F1"/>
<path d="M10.7926 19.2882H9.61468C9.37074 19.2882 9.17297 19.0905 9.17297 18.8465C9.17297 18.6025 9.37074 18.4048 9.61468 18.4048H10.7926C11.0365 18.4048 11.2343 18.6025 11.2343 18.8465C11.2343 19.0905 11.0365 19.2882 10.7926 19.2882Z" fill="#C18089"/>
<path d="M14.3264 17.0796H13.1484V18.8464H14.3264V17.0796Z" fill="#D1E5F5"/>
<path d="M13.1484 18.8468H14.3263V17.6689L13.1484 18.8468Z" fill="#B4D8F1"/>
<path d="M14.3264 19.2882H13.1485C12.9045 19.2882 12.7068 19.0905 12.7068 18.8465C12.7068 18.6025 12.9045 18.4048 13.1485 18.4048H14.3264C14.5704 18.4048 14.7681 18.6025 14.7681 18.8465C14.7681 19.0905 14.5704 19.2882 14.3264 19.2882Z" fill="#AD717B"/>
<path d="M17.8602 17.0796H16.6823V18.8464H17.8602V17.0796Z" fill="#D1E5F5"/>
<path d="M16.6823 18.8468H17.8602V17.6689L16.6823 18.8468Z" fill="#B4D8F1"/>
<path d="M17.8601 19.2882H16.6822C16.4382 19.2882 16.2405 19.0905 16.2405 18.8465C16.2405 18.6025 16.4382 18.4048 16.6822 18.4048H17.8601C18.1041 18.4048 18.3018 18.6025 18.3018 18.8465C18.3018 19.0905 18.1041 19.2882 17.8601 19.2882Z" fill="#AD717B"/>
<path d="M20.8344 0H3.16565V2.35584H20.8344V0Z" fill="#F8F8F9"/>
<path d="M20.8343 0H12V2.35584H20.8343V0Z" fill="#EDEDED"/>
<path d="M22.0123 24.0001H1.98772C1.74374 24.0001 1.54602 23.8024 1.54602 23.5584C1.54602 23.3144 1.74374 23.1167 1.98772 23.1167H22.0123C22.2562 23.1167 22.454 23.3144 22.454 23.5584C22.454 23.8024 22.2563 24.0001 22.0123 24.0001Z" fill="#88888F"/>
<path d="M22.0123 23.1167H12V24.0002H22.0123C22.2563 24.0002 22.454 23.8024 22.454 23.5584C22.454 23.3145 22.2563 23.1167 22.0123 23.1167Z" fill="#797781"/>
<path d="M17.8601 11.0431H16.6822C16.4382 11.0431 16.2405 10.8454 16.2405 10.6014C16.2405 10.3574 16.4382 10.1597 16.6822 10.1597H17.8601C18.1041 10.1597 18.3018 10.3574 18.3018 10.6014C18.3018 10.8454 18.1041 11.0431 17.8601 11.0431Z" fill="#AD717B"/>
</svg>
