<svg width="13" height="13" viewBox="0 0 13 13" fill="none" xmlns="http://www.w3.org/2000/svg">
<path d="M6.50065 4.74984C7.62823 4.74984 8.54232 3.83575 8.54232 2.70817C8.54232 1.58059 7.62823 0.666504 6.50065 0.666504C5.37307 0.666504 4.45898 1.58059 4.45898 2.70817C4.45898 3.83575 5.37307 4.74984 6.50065 4.74984Z" stroke="#0075FF" stroke-linecap="round" stroke-linejoin="round"/>
<path d="M0.666992 11.4582C0.666992 8.88071 3.01753 6.7915 5.91699 6.7915" stroke="#0075FF" stroke-linecap="round" stroke-linejoin="round"/>
<path d="M9.41699 12.0415C10.8667 12.0415 12.042 10.8663 12.042 9.4165C12.042 7.96676 10.8667 6.7915 9.41699 6.7915C7.96724 6.7915 6.79199 7.96676 6.79199 9.4165C6.79199 10.8663 7.96724 12.0415 9.41699 12.0415Z" stroke="#0075FF"/>
<path d="M9.125 8.5415V9.70817H10.2917" stroke="#0075FF" stroke-linecap="round" stroke-linejoin="round"/>
</svg>
