<svg width="36" height="35" viewBox="0 0 36 35" fill="none" xmlns="http://www.w3.org/2000/svg">
<rect x="0.5" width="35" height="35" rx="5" fill="white" fill-opacity="0.18"/>
<path d="M26.4426 24.3904C25.1933 22.2305 23.268 20.6818 21.0211 19.9476C22.1325 19.286 22.996 18.2778 23.479 17.078C23.9619 15.8781 24.0377 14.5529 23.6946 13.3058C23.3515 12.0587 22.6085 10.9588 21.5798 10.1748C20.551 9.39088 19.2933 8.96631 17.9999 8.96631C16.7065 8.96631 15.4489 9.39088 14.4201 10.1748C13.3914 10.9588 12.6484 12.0587 12.3053 13.3058C11.9622 14.5529 12.0379 15.8781 12.5209 17.078C13.0039 18.2778 13.8673 19.286 14.9787 19.9476C12.7319 20.681 10.8066 22.2297 9.55728 24.3904C9.51146 24.4651 9.48107 24.5482 9.4679 24.6349C9.45473 24.7215 9.45905 24.8099 9.4806 24.8949C9.50214 24.9798 9.54049 25.0596 9.59336 25.1295C9.64624 25.1993 9.71258 25.2579 9.78846 25.3018C9.86435 25.3456 9.94824 25.3738 10.0352 25.3847C10.1222 25.3956 10.2104 25.3889 10.2948 25.3651C10.3791 25.3414 10.4578 25.3009 10.5263 25.2462C10.5948 25.1915 10.6516 25.1237 10.6934 25.0467C12.2389 22.3757 14.9705 20.781 17.9999 20.781C21.0293 20.781 23.761 22.3757 25.3065 25.0467C25.3483 25.1237 25.4051 25.1915 25.4736 25.2462C25.542 25.3009 25.6208 25.3414 25.7051 25.3651C25.7895 25.3889 25.8777 25.3956 25.9647 25.3847C26.0516 25.3738 26.1355 25.3456 26.2114 25.3018C26.2873 25.2579 26.3536 25.1993 26.4065 25.1295C26.4594 25.0596 26.4977 24.9798 26.5193 24.8949C26.5408 24.8099 26.5451 24.7215 26.532 24.6349C26.5188 24.5482 26.4884 24.4651 26.4426 24.3904ZM13.4062 14.8748C13.4062 13.9662 13.6756 13.0781 14.1804 12.3226C14.6851 11.5672 15.4026 10.9784 16.242 10.6307C17.0814 10.283 18.005 10.1921 18.8961 10.3693C19.7872 10.5466 20.6058 10.9841 21.2482 11.6265C21.8907 12.269 22.3282 13.0875 22.5054 13.9786C22.6827 14.8697 22.5917 15.7933 22.244 16.6327C21.8963 17.4721 21.3075 18.1896 20.5521 18.6944C19.7966 19.1991 18.9085 19.4685 17.9999 19.4685C16.782 19.4672 15.6143 18.9828 14.7531 18.1216C13.8919 17.2604 13.4075 16.0927 13.4062 14.8748Z" fill="white"/>
</svg>
