<svg width="15" height="16" viewBox="0 0 15 16" fill="none" xmlns="http://www.w3.org/2000/svg">
<path d="M5.49992 13.3335H3.49992C2.79267 13.3335 2.1144 13.0525 1.6143 12.5524C1.1142 12.0524 0.833252 11.3741 0.833252 10.6668V4.66683C0.833252 3.95959 1.1142 3.28131 1.6143 2.78121C2.1144 2.28111 2.79267 2.00016 3.49992 2.00016H10.8333C11.5405 2.00016 12.2188 2.28111 12.7189 2.78121C13.219 3.28131 13.4999 3.95959 13.4999 4.66683V6.66683M4.83325 1.3335V2.66683M9.49992 1.3335V2.66683M0.833252 5.3335H13.4999M11.8333 10.4288L10.8333 11.4288" stroke="#0075FF" stroke-linecap="round" stroke-linejoin="round"/>
<path d="M10.8333 14.6667C12.6743 14.6667 14.1667 13.1743 14.1667 11.3333C14.1667 9.49238 12.6743 8 10.8333 8C8.99238 8 7.5 9.49238 7.5 11.3333C7.5 13.1743 8.99238 14.6667 10.8333 14.6667Z" stroke="#0075FF" stroke-linecap="round" stroke-linejoin="round"/>
</svg>
