<svg width="19" height="18" viewBox="0 0 19 18" fill="none" xmlns="http://www.w3.org/2000/svg">
<path fill-rule="evenodd" clip-rule="evenodd" d="M5.5815 2.73917C5.804 1.6475 6.77567 0.875 7.88817 0.875H10.6115C11.724 0.875 12.6948 1.6475 12.9182 2.73917C12.9428 2.85938 13.0071 2.96781 13.1008 3.04701C13.1946 3.12622 13.3122 3.17159 13.4348 3.17583H13.4623C14.6315 3.2275 15.5298 3.37083 16.2798 3.86333C16.7523 4.17333 17.159 4.57167 17.4757 5.0375C17.8698 5.61583 18.0432 6.28083 18.1265 7.08417C18.2082 7.87 18.2082 8.85417 18.2082 10.1008V10.1717C18.2082 11.4183 18.2082 12.4033 18.1265 13.1883C18.0432 13.9917 17.8698 14.6567 17.4757 15.2358C17.158 15.7019 16.7517 16.1009 16.2798 16.41C15.694 16.7942 15.0215 16.9642 14.2065 17.045C13.4082 17.125 12.4073 17.125 11.1357 17.125H7.364C6.09234 17.125 5.0915 17.125 4.29317 17.045C3.47817 16.9642 2.80567 16.795 2.21984 16.41C1.74793 16.1007 1.34158 15.7014 1.024 15.235C0.629837 14.6567 0.456504 13.9917 0.373171 13.1883C0.291504 12.4033 0.291504 11.4183 0.291504 10.1717V10.1008C0.291504 8.85417 0.291504 7.87 0.373171 7.08417C0.456504 6.28083 0.629837 5.61583 1.024 5.0375C1.34158 4.5711 1.74793 4.17183 2.21984 3.8625C2.96984 3.37083 3.86817 3.2275 5.03734 3.17667L5.0515 3.17583H5.06484C5.18747 3.17159 5.30511 3.12622 5.39883 3.04701C5.49254 2.96781 5.55689 2.85938 5.5815 2.73917ZM7.88817 2.125C7.35484 2.125 6.90734 2.49417 6.8065 2.98833C6.644 3.78833 5.934 4.41833 5.07984 4.42583C3.9565 4.47583 3.35484 4.61333 2.90484 4.90833C2.57057 5.12769 2.28262 5.41054 2.05734 5.74083C1.82734 6.07833 1.689 6.51083 1.61567 7.21333C1.54234 7.92667 1.5415 8.84667 1.5415 10.1367C1.5415 11.4267 1.5415 12.3458 1.6165 13.0592C1.689 13.7617 1.82734 14.1942 2.05817 14.5325C2.2815 14.8608 2.569 15.1442 2.90567 15.3642C3.25317 15.5925 3.69817 15.73 4.41734 15.8017C5.14567 15.8742 6.084 15.875 7.39817 15.875H11.1015C12.4148 15.875 13.3532 15.875 14.0823 15.8017C14.8015 15.73 15.2465 15.5933 15.594 15.365C15.9307 15.1442 16.219 14.8608 16.4423 14.5317C16.6723 14.1942 16.8107 13.7617 16.884 13.0592C16.9573 12.3458 16.9582 11.4258 16.9582 10.1367C16.9582 8.84667 16.9582 7.92667 16.8832 7.21333C16.8107 6.51083 16.6723 6.07833 16.4415 5.74083C16.2165 5.4101 15.9285 5.12693 15.594 4.9075C15.1457 4.61333 14.544 4.47583 13.419 4.42583C12.5657 4.4175 11.8557 3.78917 11.6932 2.98833C11.6398 2.74189 11.5031 2.52141 11.306 2.36412C11.109 2.20683 10.8636 2.12237 10.6115 2.125H7.88817ZM9.24984 7.95833C8.75256 7.95833 8.27564 8.15588 7.92401 8.50751C7.57238 8.85914 7.37484 9.33605 7.37484 9.83333C7.37484 10.3306 7.57238 10.8075 7.92401 11.1592C8.27564 11.5108 8.75256 11.7083 9.24984 11.7083C9.74712 11.7083 10.224 11.5108 10.5757 11.1592C10.9273 10.8075 11.1248 10.3306 11.1248 9.83333C11.1248 9.33605 10.9273 8.85914 10.5757 8.50751C10.224 8.15588 9.74712 7.95833 9.24984 7.95833ZM6.12484 9.83333C6.12484 9.00453 6.45408 8.20968 7.04013 7.62362C7.62618 7.03757 8.42104 6.70833 9.24984 6.70833C10.0786 6.70833 10.8735 7.03757 11.4595 7.62362C12.0456 8.20968 12.3748 9.00453 12.3748 9.83333C12.3748 10.6621 12.0456 11.457 11.4595 12.043C10.8735 12.6291 10.0786 12.9583 9.24984 12.9583C8.42104 12.9583 7.62618 12.6291 7.04013 12.043C6.45408 11.457 6.12484 10.6621 6.12484 9.83333ZM13.6248 7.33333C13.6248 7.16757 13.6907 7.0086 13.8079 6.89139C13.9251 6.77418 14.0841 6.70833 14.2498 6.70833H15.0832C15.2489 6.70833 15.4079 6.77418 15.5251 6.89139C15.6423 7.0086 15.7082 7.16757 15.7082 7.33333C15.7082 7.49909 15.6423 7.65806 15.5251 7.77527C15.4079 7.89248 15.2489 7.95833 15.0832 7.95833H14.2498C14.0841 7.95833 13.9251 7.89248 13.8079 7.77527C13.6907 7.65806 13.6248 7.49909 13.6248 7.33333Z" fill="black" fill-opacity="0.5"/>
</svg>
