<svg width="22" height="16" viewBox="0 0 22 16" fill="none" xmlns="http://www.w3.org/2000/svg">
<path d="M4.25 0.5C3.25544 0.5 2.30161 0.895088 1.59835 1.59835C0.895088 2.30161 0.5 3.25544 0.5 4.25V11.75C0.5 12.7446 0.895088 13.6984 1.59835 14.4017C2.30161 15.1049 3.25544 15.5 4.25 15.5H11.75C12.7446 15.5 13.6984 15.1049 14.4017 14.4017C15.1049 13.6984 15.5 12.7446 15.5 11.75V11.5595L18.5525 13.667C18.8338 13.8612 19.1629 13.9747 19.5041 13.9954C19.8453 14.0161 20.1857 13.9431 20.4884 13.7843C20.7911 13.6255 21.0447 13.387 21.2217 13.0946C21.3986 12.8021 21.4923 12.4668 21.4925 12.125V3.878C21.4923 3.53617 21.3986 3.2009 21.2217 2.90844C21.0447 2.61599 20.7911 2.37748 20.4884 2.21871C20.1857 2.05993 19.8453 1.98694 19.5041 2.00761C19.1629 2.02828 18.8338 2.14184 18.5525 2.336L15.5 4.4435V4.25C15.5 3.25544 15.1049 2.30161 14.4017 1.59835C13.6984 0.895088 12.7446 0.5 11.75 0.5H4.25ZM15.5 6.266L19.406 3.569C19.4623 3.53014 19.5282 3.50742 19.5965 3.50331C19.6648 3.4992 19.7329 3.51385 19.7934 3.54568C19.854 3.57751 19.9047 3.6253 19.9401 3.68387C19.9754 3.74245 19.9941 3.80958 19.994 3.878V12.125C19.9938 12.1933 19.9749 12.2602 19.9395 12.3186C19.904 12.377 19.8533 12.4245 19.7928 12.4562C19.7323 12.4878 19.6643 12.5023 19.5961 12.4982C19.5279 12.494 19.4622 12.4713 19.406 12.4325L15.5 9.737V6.266ZM2 4.25C2 3.65326 2.23705 3.08097 2.65901 2.65901C3.08097 2.23705 3.65326 2 4.25 2H11.75C12.3467 2 12.919 2.23705 13.341 2.65901C13.7629 3.08097 14 3.65326 14 4.25V11.75C14 12.3467 13.7629 12.919 13.341 13.341C12.919 13.7629 12.3467 14 11.75 14H4.25C3.65326 14 3.08097 13.7629 2.65901 13.341C2.23705 12.919 2 12.3467 2 11.75V4.25Z" fill="#0075FF"/>
</svg>
