<svg width="30" height="30" viewBox="0 0 30 30" fill="none" xmlns="http://www.w3.org/2000/svg">
<g clip-path="url(#clip0_429_37326)">
<path d="M15.0005 7.5C15.6841 7.5 16.3286 7.40234 16.9341 7.20703C17.5396 7.01172 18.1451 6.79688 18.7505 6.5625C19.356 6.32812 19.9566 6.11328 20.5523 5.91797C21.148 5.72266 21.7974 5.625 22.5005 5.625V7.5C22.0708 7.5 21.6607 7.54395 21.2701 7.63184C20.8794 7.71973 20.4986 7.83691 20.1275 7.9834C19.7564 8.12988 19.3755 8.28125 18.9849 8.4375C18.5943 8.59375 18.1988 8.74512 17.7984 8.8916C17.398 9.03809 16.9634 9.15039 16.4947 9.22852C16.0259 9.30664 15.5279 9.35547 15.0005 9.375C14.4634 9.375 13.9654 9.33105 13.5064 9.24316C13.0474 9.15527 12.6128 9.03809 12.2027 8.8916C11.7925 8.74512 11.4019 8.59375 11.0308 8.4375C10.6597 8.28125 10.2788 8.12988 9.88822 7.9834C9.49759 7.83691 9.11185 7.72461 8.73099 7.64648C8.35013 7.56836 7.93998 7.51953 7.50052 7.5V5.625C8.17435 5.625 8.81888 5.72266 9.43412 5.91797C10.0494 6.11328 10.6548 6.32812 11.2505 6.5625C11.8462 6.79688 12.4517 7.01172 13.0669 7.20703C13.6822 7.40234 14.3267 7.5 15.0005 7.5ZM30.0005 8.48145C30.0005 10.21 29.8736 11.9678 29.6197 13.7549C29.3658 15.542 28.9947 17.3145 28.5064 19.0723C28.0181 20.8301 27.4029 22.5342 26.6607 24.1846C25.9185 25.835 25.0738 27.3926 24.1265 28.8574C23.8921 29.209 23.5943 29.4873 23.2329 29.6924C22.8716 29.8975 22.4761 30 22.0464 30C21.5093 30 21.0259 29.8486 20.5962 29.5459C20.1665 29.2432 19.8687 28.833 19.7027 28.3154L17.0952 20.5225C16.7535 20.5615 16.4068 20.5859 16.0552 20.5957C15.7036 20.6055 15.3521 20.6152 15.0005 20.625C14.649 20.625 14.2974 20.6201 13.9458 20.6104C13.5943 20.6006 13.2476 20.5713 12.9058 20.5225L10.2984 28.3154C10.1324 28.8232 9.83451 29.2285 9.40482 29.5312C8.97513 29.834 8.49173 29.9902 7.95462 30C7.52494 30 7.12943 29.8975 6.7681 29.6924C6.40677 29.4873 6.10892 29.209 5.87455 28.8574C4.91751 27.4023 4.07279 25.8496 3.34037 24.1992C2.60794 22.5488 1.99759 20.8447 1.50931 19.0869C1.02103 17.3291 0.645054 15.5566 0.381383 13.7695C0.117711 11.9824 -0.00924247 10.2197 0.000523158 8.48145C0.000523158 7.3877 0.166539 6.33301 0.49857 5.31738C0.830601 4.30176 1.314 3.39844 1.94877 2.60742C2.58353 1.81641 3.36478 1.18652 4.29251 0.717773C5.22025 0.249023 6.27982 0.00976562 7.47123 0C8.16459 0 8.814 0.0976563 9.41947 0.292969C10.0249 0.488281 10.6304 0.703125 11.2359 0.9375C11.8413 1.17188 12.4419 1.38672 13.0376 1.58203C13.6333 1.77734 14.2876 1.875 15.0005 1.875C15.6939 1.875 16.3433 1.77734 16.9488 1.58203C17.5542 1.38672 18.1597 1.17188 18.7652 0.9375C19.3706 0.703125 19.9712 0.488281 20.5669 0.292969C21.1626 0.0976563 21.8169 0 22.5298 0C23.7212 0 24.7808 0.234375 25.7085 0.703125C26.6363 1.17188 27.4175 1.80176 28.0523 2.59277C28.687 3.38379 29.1704 4.28711 29.5025 5.30273C29.8345 6.31836 30.0005 7.37793 30.0005 8.48145ZM28.1255 8.51074C28.1255 7.60254 28.0035 6.74805 27.7593 5.94727C27.5152 5.14648 27.149 4.44336 26.6607 3.83789C26.1724 3.23242 25.5572 2.75391 24.815 2.40234C24.0728 2.05078 23.2183 1.875 22.2515 1.875C21.6851 1.875 21.1431 1.97266 20.6255 2.16797C20.1079 2.36328 19.5611 2.57812 18.9849 2.8125C18.4087 3.04688 17.8033 3.26172 17.1685 3.45703C16.5337 3.65234 15.8111 3.75 15.0005 3.75C14.19 3.75 13.4673 3.65234 12.8326 3.45703C12.1978 3.26172 11.5923 3.04688 11.0161 2.8125C10.44 2.57812 9.88334 2.36328 9.34623 2.16797C8.80912 1.97266 8.21341 1.875 7.55912 1.875C6.61185 1.875 5.78177 2.06055 5.06888 2.43164C4.35599 2.80273 3.76517 3.2959 3.29642 3.91113C2.82767 4.52637 2.47123 5.22949 2.22709 6.02051C1.98294 6.81152 1.86576 7.6416 1.87552 8.51074C1.87552 9.46777 1.92923 10.498 2.03666 11.6016C2.14408 12.7051 2.31009 13.8477 2.5347 15.0293C2.75931 16.2109 3.02787 17.3877 3.34037 18.5596C3.65287 19.7314 4.01908 20.8838 4.439 22.0166C4.85892 23.1494 5.32279 24.2041 5.8306 25.1807C6.33841 26.1572 6.88529 27.0459 7.47123 27.8467C7.61771 28.0322 7.80326 28.125 8.02787 28.125C8.14505 28.125 8.29642 27.9492 8.48197 27.5977C8.66751 27.2461 8.86283 26.7871 9.06791 26.2207C9.27298 25.6543 9.49271 25.0391 9.72709 24.375C9.96146 23.7109 10.1714 23.0615 10.357 22.4268C10.5425 21.792 10.7232 21.2158 10.899 20.6982C11.0747 20.1807 11.1919 19.8047 11.2505 19.5703C11.3286 19.3164 11.4751 19.0967 11.69 18.9111C11.9048 18.7256 12.1587 18.6279 12.4517 18.6182C12.8814 18.6182 13.3062 18.6377 13.7261 18.6768C14.146 18.7158 14.5708 18.7402 15.0005 18.75C15.4302 18.75 15.855 18.7305 16.2749 18.6914C16.6949 18.6523 17.1197 18.6279 17.5494 18.6182C17.8326 18.6182 18.0816 18.7109 18.2964 18.8965C18.5113 19.082 18.6626 19.3066 18.7505 19.5703C18.8286 19.8047 18.9458 20.1807 19.1021 20.6982C19.2583 21.2158 19.4341 21.7871 19.6294 22.4121C19.8247 23.0371 20.0396 23.6914 20.274 24.375C20.5083 25.0586 20.7232 25.6738 20.9185 26.2207C21.1138 26.7676 21.314 27.2217 21.5191 27.583C21.7242 27.9443 21.8755 28.125 21.9732 28.125C22.1978 28.125 22.3833 28.0322 22.5298 27.8467C23.1158 27.0654 23.6626 26.1768 24.1704 25.1807C24.6783 24.1846 25.1372 23.1299 25.5474 22.0166C25.9576 20.9033 26.3238 19.7559 26.646 18.5742C26.9683 17.3926 27.2369 16.2158 27.4517 15.0439C27.6665 13.8721 27.8326 12.7295 27.9497 11.6162C28.0669 10.5029 28.1255 9.46777 28.1255 8.51074Z" fill="#0075FF"/>
</g>
<defs>
<clipPath id="clip0_429_37326">
<rect width="30" height="30" fill="white"/>
</clipPath>
</defs>
</svg>
