<svg width="47" height="50" viewBox="0 0 47 50" fill="none" xmlns="http://www.w3.org/2000/svg">
<g clip-path="url(#clip0_127_6928)">
<path fill-rule="evenodd" clip-rule="evenodd" d="M41.7969 10.6494C42.3359 11.2354 42.6386 12.0301 42.6386 12.8588C42.6386 13.6874 42.3359 14.4821 41.7969 15.0681L20.2478 38.4911C19.963 38.8007 19.6249 39.0463 19.2528 39.2138C18.8807 39.3814 18.4819 39.4676 18.0791 39.4676C17.6763 39.4676 17.2775 39.3814 16.9054 39.2138C16.5332 39.0463 16.1952 38.8007 15.9104 38.4911L5.20388 26.8556C4.92928 26.5674 4.71026 26.2225 4.55958 25.8413C4.40891 25.46 4.3296 25.05 4.32628 24.635C4.32296 24.2201 4.39571 23.8086 4.54026 23.4245C4.68482 23.0405 4.8983 22.6916 5.16824 22.3982C5.43818 22.1047 5.75918 21.8727 6.11251 21.7156C6.46583 21.5585 6.84441 21.4794 7.22615 21.483C7.60789 21.4866 7.98515 21.5728 8.33591 21.7366C8.68668 21.9004 9.00392 22.1384 9.26913 22.4369L18.0781 32.0119L37.7297 10.6494C37.9967 10.359 38.3137 10.1286 38.6627 9.97147C39.0116 9.8143 39.3856 9.7334 39.7633 9.7334C40.141 9.7334 40.515 9.8143 40.8639 9.97147C41.2129 10.1286 41.5299 10.359 41.7969 10.6494Z" fill="#387445"/>
</g>
<defs>
<clipPath id="clip0_127_6928">
<rect width="46" height="50" fill="white" transform="translate(0.5)"/>
</clipPath>
</defs>
</svg>
