<svg width="14" height="15" viewBox="0 0 14 15" fill="none" xmlns="http://www.w3.org/2000/svg">
<g clip-path="url(#clip0_346_21874)">
<path d="M12.0267 2.54878C11.8352 2.34744 11.6054 2.18645 11.3507 2.0753C11.0961 1.96414 10.8218 1.90506 10.544 1.90153C10.2662 1.89801 9.99044 1.95012 9.73306 2.05479C9.47569 2.15945 9.24186 2.31456 9.04535 2.51098L2.48285 9.07348C2.25354 9.30283 2.09426 9.59274 2.02365 9.90928L1.40975 12.6743C1.39694 12.7317 1.39883 12.7915 1.41525 12.848C1.43167 12.9046 1.46208 12.9561 1.50367 12.9977C1.54527 13.0394 1.5967 13.0699 1.6532 13.0864C1.70971 13.1029 1.76947 13.1049 1.82695 13.0922L4.57585 12.4811C4.90331 12.4089 5.20314 12.2442 5.43965 12.0065L11.9903 5.45588C12.3742 5.07175 12.5929 4.55282 12.5997 4.00974C12.6065 3.46666 12.4009 2.94241 12.0267 2.54878ZM9.54025 3.00588C9.66829 2.87599 9.82077 2.77273 9.98889 2.70202C10.157 2.63132 10.3375 2.59459 10.5199 2.59393C10.7022 2.59328 10.883 2.62872 11.0516 2.69821C11.2202 2.76771 11.3734 2.86988 11.5024 2.99885C11.6314 3.12782 11.7335 3.28103 11.803 3.44965C11.8725 3.61828 11.908 3.79899 11.9073 3.98138C11.9066 4.16377 11.8699 4.34422 11.7992 4.51234C11.7285 4.68047 11.6252 4.83294 11.4954 4.96098L11.0257 5.43068L9.07055 3.47628L9.54025 3.00588ZM8.57565 3.97188L10.5308 5.92628L4.94475 11.5123C4.80235 11.6559 4.6215 11.7553 4.42395 11.7986L2.21195 12.29L2.70755 10.0619C2.74885 9.87498 2.84265 9.70418 2.97775 9.56908L8.57565 3.97188Z" fill="#0075FF"/>
<line x1="2.25" y1="14.25" x2="10.75" y2="14.25" stroke="#0075FF" stroke-width="0.5" stroke-linecap="round"/>
</g>
<defs>
<clipPath id="clip0_346_21874">
<rect width="14" height="14" fill="white" transform="translate(0 0.5)"/>
</clipPath>
</defs>
</svg>
