<svg width="14" height="14" viewBox="0 0 14 14" fill="none" xmlns="http://www.w3.org/2000/svg">
<path d="M6.99998 13.0003C7.80208 13.0004 8.59605 12.8396 9.33494 12.5275C10.0738 12.2154 10.7426 11.7583 11.3018 11.1833C11.861 10.6082 12.2992 9.9269 12.5906 9.17957C12.8819 8.43225 13.0204 7.6341 12.998 6.83231C12.1589 7.41636 11.1512 7.70869 10.1298 7.66438C9.10837 7.62007 8.12978 7.24157 7.3444 6.58705C6.55902 5.93253 6.01031 5.0382 5.7826 4.04153C5.55488 3.04485 5.66077 2.00097 6.08398 1.07031C4.58946 1.30062 3.23702 2.08676 2.29724 3.27142C1.35746 4.45609 0.899657 5.95193 1.01542 7.45965C1.13119 8.96737 1.81198 10.3758 2.9216 11.4031C4.03122 12.4304 5.48782 13.0009 6.99998 13.0003Z" stroke="#898A8D" stroke-width="1.3" stroke-linecap="round" stroke-linejoin="round"/>
</svg>
