<svg width="20" height="18" viewBox="0 0 20 18" fill="none" xmlns="http://www.w3.org/2000/svg">
<path fill-rule="evenodd" clip-rule="evenodd" d="M15.8369 10.849C17.6959 10.849 19.2082 12.3538 19.2082 14.203C19.2082 16.0523 17.6959 17.557 15.8369 17.557C13.9768 17.557 12.4634 16.0523 12.4634 14.203C12.4634 12.3538 13.9768 10.849 15.8369 10.849ZM15.8369 12.474C14.8727 12.474 14.0884 13.2497 14.0884 14.203C14.0884 15.1574 14.8727 15.932 15.8369 15.932C16.8 15.932 17.5832 15.1574 17.5832 14.203C17.5832 13.2497 16.8 12.474 15.8369 12.474ZM7.92032 13.4326C8.36882 13.4326 8.73282 13.7966 8.73282 14.2451C8.73282 14.6936 8.36882 15.0576 7.92032 15.0576H1.09424C0.645742 15.0576 0.281742 14.6936 0.281742 14.2451C0.281742 13.7966 0.645742 13.4326 1.09424 13.4326H7.92032ZM3.62242 0.332031C5.4825 0.332031 6.99483 1.83786 6.99483 3.68711C6.99483 5.53636 5.4825 7.04003 3.62242 7.04003C1.76342 7.04003 0.25 5.53636 0.25 3.68711C0.25 1.83786 1.76342 0.332031 3.62242 0.332031ZM3.62242 1.95703C2.65933 1.95703 1.875 2.7327 1.875 3.68711C1.875 4.64045 2.65933 5.41503 3.62242 5.41503C4.58658 5.41503 5.36983 4.64045 5.36983 3.68711C5.36983 2.7327 4.58658 1.95703 3.62242 1.95703ZM17.7904 2.93246C18.2389 2.93246 18.6029 3.29646 18.6029 3.74496C18.6029 4.19346 18.2389 4.55746 17.7904 4.55746H10.9654C10.5169 4.55746 10.1529 4.19346 10.1529 3.74496C10.1529 3.29646 10.5169 2.93246 10.9654 2.93246H17.7904Z" fill="#0075FF"/>
</svg>
