<svg width="28" height="29" viewBox="0 0 28 29" fill="none" xmlns="http://www.w3.org/2000/svg">
<path d="M8 10.501C9.10457 10.501 10 9.60555 10 8.50098C10 7.39641 9.10457 6.50098 8 6.50098C6.89543 6.50098 6 7.39641 6 8.50098C6 9.60555 6.89543 10.501 8 10.501Z" stroke="#979797" stroke-width="2" stroke-linecap="round" stroke-linejoin="round"/>
<path d="M1.33301 14.5007C1.33301 8.52998 1.33301 5.54332 3.18767 3.68865C5.04234 1.83398 8.02767 1.83398 13.9997 1.83398C19.9703 1.83398 22.957 1.83398 24.8117 3.68865C26.6663 5.54332 26.6663 8.52865 26.6663 14.5007C26.6663 20.4713 26.6663 23.458 24.8117 25.3127C22.957 27.1673 19.9717 27.1673 13.9997 27.1673C8.02901 27.1673 5.04234 27.1673 3.18767 25.3127C1.33301 23.458 1.33301 20.4727 1.33301 14.5007Z" stroke="#979797" stroke-width="2" stroke-linecap="round" stroke-linejoin="round"/>
<path d="M4.66602 26.5002C10.4953 19.5335 17.0313 10.3455 26.6633 16.5562" stroke="#979797" stroke-width="2" stroke-linecap="round" stroke-linejoin="round"/>
</svg>
