<svg width="21" height="21" viewBox="0 0 21 21" fill="none" xmlns="http://www.w3.org/2000/svg">
<path d="M13 6H13.01M10.5 19H4C3.20435 19 2.44129 18.6839 1.87868 18.1213C1.31607 17.5587 1 16.7956 1 16V4C1 3.20435 1.31607 2.44129 1.87868 1.87868C2.44129 1.31607 3.20435 1 4 1H16C16.7956 1 17.5587 1.31607 18.1213 1.87868C18.6839 2.44129 19 3.20435 19 4V10.5" stroke="#0075FF" stroke-width="1.5" stroke-linecap="round" stroke-linejoin="round"/>
<path d="M1 13.9998L6 8.99983C6.928 8.10683 8.072 8.10683 9 8.99983L13 12.9998" stroke="#0075FF" stroke-width="1.5" stroke-linecap="round" stroke-linejoin="round"/>
<path d="M12 12L13 11C13.67 10.356 14.45 10.176 15.182 10.46M14 17H20M17 14V20" stroke="#0075FF" stroke-width="1.5" stroke-linecap="round" stroke-linejoin="round"/>
</svg>
