<svg width="12" height="13" viewBox="0 0 12 13" fill="none" xmlns="http://www.w3.org/2000/svg">
<path fill-rule="evenodd" clip-rule="evenodd" d="M7.12499 2C7.02554 2 6.93016 1.96049 6.85983 1.89017C6.7895 1.81984 6.74999 1.72446 6.74999 1.625C6.74999 1.52554 6.7895 1.43016 6.85983 1.35983C6.93016 1.28951 7.02554 1.25 7.12499 1.25H10.875C10.9745 1.25 11.0698 1.28951 11.1402 1.35983C11.2105 1.43016 11.25 1.52554 11.25 1.625V5.375C11.25 5.47446 11.2105 5.56984 11.1402 5.64016C11.0698 5.71049 10.9745 5.75 10.875 5.75C10.7755 5.75 10.6802 5.71049 10.6098 5.64016C10.5395 5.56984 10.5 5.47446 10.5 5.375V2.53025L7.40324 5.627C8.0121 6.37189 8.31138 7.3223 8.23918 8.28165C8.16699 9.241 7.72884 10.1359 7.01535 10.7813C6.30187 11.4267 5.36764 11.7731 4.40587 11.7491C3.44411 11.725 2.52839 11.3322 1.84811 10.6519C1.16782 9.9716 0.775018 9.05588 0.750932 8.09412C0.726847 7.13236 1.07332 6.19812 1.7187 5.48464C2.36408 4.77116 3.25899 4.33301 4.21834 4.26081C5.1777 4.18861 6.1281 4.48789 6.87299 5.09675L9.96974 2H7.12499ZM4.49999 5C3.70435 5 2.94128 5.31607 2.37867 5.87868C1.81607 6.44129 1.49999 7.20435 1.49999 8C1.49999 8.79565 1.81607 9.55871 2.37867 10.1213C2.94128 10.6839 3.70435 11 4.49999 11C5.29564 11 6.05871 10.6839 6.62132 10.1213C7.18392 9.55871 7.49999 8.79565 7.49999 8C7.49999 7.20435 7.18392 6.44129 6.62132 5.87868C6.05871 5.31607 5.29564 5 4.49999 5Z" fill="#979797"/>
</svg>
