<svg width="28" height="24" viewBox="0 0 28 24" fill="none" xmlns="http://www.w3.org/2000/svg">
<path fill-rule="evenodd" clip-rule="evenodd" d="M18.3972 2.71503L18.4385 2.752L24.6095 8.28184L26.9743 10.4006L26.975 10.4C27.2437 10.6326 27.3505 10.976 27.2543 11.2984C27.1582 11.6208 26.874 11.8719 26.5111 11.9553C26.1484 12.0387 25.7634 11.9417 25.5038 11.7015L25.5031 11.7021L24.9111 11.1717V15.2455V15.2468C24.9105 19.2339 21.8479 22.7016 17.5047 23.6147C15.0612 24.1284 12.5169 24.1284 10.0734 23.6147L10.2045 23.1229L10.2042 23.1224L10.0734 23.6147C5.73021 22.7016 2.6677 19.2339 2.66706 15.2468V15.2455V11.1717L2.075 11.7021L2.07432 11.7015C1.81469 11.9417 1.42973 12.0387 1.06708 11.9553C0.704115 11.8719 0.419963 11.6208 0.323802 11.2984C0.22764 10.976 0.334425 10.6326 0.603131 10.4L0.603822 10.4006L2.96863 8.28184L9.13968 2.752L9.18126 2.71471L9.18128 2.71471C10.0646 1.92268 10.8004 1.26308 11.4623 0.811076C12.1595 0.334769 12.8954 0 13.7891 0C14.6827 0 15.42 0.334769 16.1145 0.811076C16.7779 1.26314 17.5137 1.92286 18.3972 2.71503ZM22.8361 9.31261V15.2455V15.2468C22.8355 18.0844 20.8639 20.5797 17.9735 21.5592C18.1027 20.9179 18.1012 20.2569 17.9654 19.6086L17.938 19.4832L17.9391 19.4831C17.6474 18.087 16.4882 16.9602 14.9511 16.5784L14.3977 18.3581C15.164 18.5477 15.7505 19.1137 15.9 19.8225L15.8987 19.8228H15.9L15.9249 19.9495C16.0747 20.6574 15.978 21.3878 15.6505 22.0434C14.4143 22.19 13.1617 22.19 11.9255 22.0431C11.5985 21.3867 11.5025 20.6567 11.6518 19.9495H11.6532L11.6794 19.8233L11.6809 19.824C11.8272 19.1206 12.4105 18.5525 13.1846 18.3594L13.1837 18.3565C13.5801 18.2584 13.9985 18.2586 14.395 18.3569L14.9497 16.5784C14.1903 16.391 13.3878 16.391 12.6285 16.5784L12.6289 16.5799C11.0919 16.9607 9.93214 18.0863 9.63907 19.4818L9.6114 19.6086L9.61273 19.6089C9.47611 20.257 9.47498 20.9179 9.60465 21.5592C6.71422 20.5797 4.74264 18.0844 4.74206 15.2468V15.2455V9.31261L10.6129 4.05292C11.555 3.20738 12.1899 2.64123 12.7267 2.27446C13.2385 1.92492 13.5359 1.84615 13.7891 1.84615C14.0422 1.84615 14.3383 1.92492 14.8515 2.27446C15.3868 2.64123 16.0232 3.20738 16.9652 4.05292L22.8361 9.31261Z" fill="#0075FF"/>
</svg>
