<svg width="22" height="21" viewBox="0 0 22 21" fill="none" xmlns="http://www.w3.org/2000/svg">
<path fill-rule="evenodd" clip-rule="evenodd" d="M6.5 5.62562V1.64237C6.49951 1.59037 6.48878 1.53897 6.46843 1.49111C6.44807 1.44325 6.41849 1.39987 6.38137 1.36345C6.34425 1.32703 6.30032 1.29827 6.25208 1.27882C6.20385 1.25938 6.15225 1.24963 6.10025 1.25012H3.90725C3.85467 1.24883 3.80236 1.25798 3.75335 1.27705C3.70434 1.29611 3.65959 1.32472 3.62171 1.3612C3.58383 1.39769 3.55357 1.44132 3.53268 1.48959C3.51179 1.53785 3.50068 1.58978 3.5 1.64237V8.12687L2.75 8.75162V20.7516H19.25V9.50162L11.0525 1.82912L6.5 5.62562Z" fill="#F3C07B"/>
<path d="M10.94 19.2524H5.06C5.03 19.2524 5 19.2224 5 19.1924V11.2949C5 10.7324 5.4575 10.2749 6.02 10.2749H9.9875C10.55 10.2749 11.0075 10.7324 11.0075 11.2949V19.1924C11 19.2224 10.97 19.2524 10.94 19.2524Z" fill="#8C5543"/>
<path d="M9.875 14.7515C9.97446 14.7515 10.0698 14.712 10.1402 14.6416C10.2105 14.5713 10.25 14.4759 10.25 14.3765C10.25 14.277 10.2105 14.1816 10.1402 14.1113C10.0698 14.041 9.97446 14.0015 9.875 14.0015C9.77554 14.0015 9.68016 14.041 9.60983 14.1113C9.53951 14.1816 9.5 14.277 9.5 14.3765C9.5 14.4759 9.53951 14.5713 9.60983 14.6416C9.68016 14.712 9.77554 14.7515 9.875 14.7515Z" fill="#402A32"/>
<path d="M10.97 20.0015H5C4.5875 20.0015 4.25 19.664 4.25 19.2515C4.25 18.839 4.5875 18.5015 5 18.5015H10.97C11.3825 18.5015 11.72 18.839 11.72 19.2515C11.72 19.664 11.3825 20.0015 10.97 20.0015Z" fill="#D3D3D3"/>
<path d="M21.5 20.7515H0.5V20.684C0.5 19.889 1.1375 19.2515 1.9325 19.2515H20.0675C20.855 19.2515 21.5 19.889 21.5 20.684V20.7515Z" fill="#00F397"/>
<path d="M11.66 0.764863L21.23 10.1924C21.59 10.5449 21.59 11.1149 21.23 11.4599C20.8775 11.8124 20.3 11.8124 19.94 11.4599L11.015 2.66986L2.06 11.4899C1.7075 11.8424 1.13 11.8424 0.77 11.4899C0.41 11.1374 0.41 10.5674 0.77 10.2149L10.37 0.764863C10.7225 0.412363 11.3 0.412363 11.66 0.764863Z" fill="#F8312F"/>
<path d="M16.355 14.7515H13.145C12.785 14.7515 12.5 14.4665 12.5 14.1065V10.8965C12.5 10.544 12.785 10.2515 13.145 10.2515H16.355C16.7075 10.2515 17 10.5365 17 10.8965V14.1065C17 14.4665 16.715 14.7515 16.355 14.7515Z" fill="#83CBFF"/>
</svg>
