<svg width="15" height="14" viewBox="0 0 15 14" fill="none" xmlns="http://www.w3.org/2000/svg">
<path d="M11.6666 3.6667C11.6666 3.88771 11.5789 4.09967 11.4226 4.25595C11.2663 4.41223 11.0543 4.50003 10.8333 4.50003C10.6123 4.50003 10.4003 4.41223 10.2441 4.25595C10.0878 4.09967 9.99998 3.88771 9.99998 3.6667C9.99998 3.44569 10.0878 3.23372 10.2441 3.07744C10.4003 2.92116 10.6123 2.83337 10.8333 2.83337C11.0543 2.83337 11.2663 2.92116 11.4226 3.07744C11.5789 3.23372 11.6666 3.44569 11.6666 3.6667ZM9.83332 0.366699C8.67542 0.367406 7.56515 0.827691 6.7464 1.64645C5.92764 2.4652 5.46736 3.57547 5.46665 4.73337C5.46665 4.99137 5.49998 5.24003 5.53998 5.46937C5.54557 5.49824 5.54425 5.52802 5.53614 5.55629C5.52803 5.58456 5.51336 5.61051 5.49332 5.63203L1.33665 9.78936C0.992789 10.133 0.799509 10.5992 0.799316 11.0854V12.5334C0.799316 13.1774 1.32198 13.7 1.96598 13.7H3.63265C3.94207 13.7 4.23881 13.5771 4.45761 13.3583C4.6764 13.1395 4.79932 12.8428 4.79932 12.5334V11.7H5.96665C6.42665 11.7 6.79998 11.3267 6.79998 10.8667V9.70003H7.96665C8.18245 9.70018 8.38989 9.6166 8.54532 9.46689C8.70075 9.31719 8.79204 9.11302 8.79998 8.89736C9.13065 8.9827 9.47998 9.03337 9.83332 9.03337C10.9912 9.03266 12.1015 8.57237 12.9202 7.75362C13.739 6.93486 14.1993 5.82459 14.2 4.6667C14.2 2.24603 12.2313 0.366699 9.83332 0.366699ZM6.46665 4.73337C6.46736 3.84069 6.82228 2.98477 7.4535 2.35355C8.08472 1.72233 8.94064 1.36741 9.83332 1.3667C11.7013 1.3667 13.2 2.8207 13.2 4.6667C13.1993 5.55938 12.8443 6.41529 12.2131 7.04651C11.5819 7.67773 10.726 8.03266 9.83332 8.03337C9.37998 8.03337 8.91332 7.91936 8.49665 7.74003C8.42055 7.70734 8.33752 7.69407 8.25502 7.70141C8.17252 7.70875 8.09313 7.73647 8.02399 7.78207C7.95486 7.82768 7.89813 7.88975 7.85891 7.9627C7.8197 8.03565 7.79922 8.11721 7.79932 8.20003V8.70003H6.63332C6.17332 8.70003 5.79998 9.07337 5.79998 9.53337V10.7H4.63332C4.17332 10.7 3.79998 11.0734 3.79998 11.5334V12.5334C3.79998 12.5776 3.78242 12.62 3.75117 12.6512C3.71991 12.6825 3.67752 12.7 3.63332 12.7H1.96665C1.92245 12.7 1.88005 12.6825 1.8488 12.6512C1.81754 12.62 1.79998 12.5776 1.79998 12.5334V11.0854C1.79998 10.8647 1.88798 10.652 2.04398 10.496L6.20132 6.33937C6.33532 6.20452 6.43475 6.0393 6.49117 5.85776C6.54758 5.67622 6.55929 5.48374 6.52532 5.2967C6.48981 5.11093 6.47019 4.92247 6.46665 4.73337Z" fill="#0075FF"/>
</svg>
