<svg width="28" height="29" viewBox="0 0 28 29" fill="none" xmlns="http://www.w3.org/2000/svg">
<rect x="0.5" y="1.39844" width="27" height="26.2" rx="9.1" fill="white"/>
<rect x="0.5" y="1.39844" width="27" height="26.2" rx="9.1" stroke="#0075FF"/>
<path d="M12.5718 11.7763C12.5718 11.5747 12.6321 11.3776 12.7452 11.21C12.8582 11.0424 13.0188 10.9117 13.2068 10.8346C13.3947 10.7574 13.6015 10.7373 13.8011 10.7766C14.0006 10.8159 14.1839 10.913 14.3277 11.0555C14.4715 11.1981 14.5695 11.3797 14.6092 11.5774C14.6489 11.7751 14.6285 11.9801 14.5507 12.1663C14.4728 12.3526 14.341 12.5117 14.1718 12.6237C14.0027 12.7357 13.8038 12.7955 13.6004 12.7955C13.3276 12.7955 13.066 12.6881 12.8731 12.497C12.6802 12.3058 12.5718 12.0466 12.5718 11.7763ZM9.4861 11.7763C9.4861 10.695 9.91957 9.65795 10.6912 8.89336C11.4627 8.12876 12.5092 7.69922 13.6004 7.69922C14.6916 7.69922 15.7381 8.12876 16.5096 8.89336C17.2812 9.65795 17.7147 10.695 17.7147 11.7763C17.7147 15.5953 14.0131 17.7351 13.8575 17.8249C13.7798 17.8689 13.6918 17.8921 13.6023 17.8921C13.5128 17.8921 13.4248 17.8689 13.3471 17.8249C13.1877 17.7351 9.4861 15.5985 9.4861 11.7763ZM10.5147 11.7763C10.5147 14.4646 12.8187 16.2489 13.6004 16.777C14.3815 16.2495 16.6861 14.4646 16.6861 11.7763C16.6861 10.9653 16.361 10.1875 15.7823 9.61408C15.2036 9.04064 14.4188 8.71848 13.6004 8.71848C12.782 8.71848 11.9971 9.04064 11.4185 9.61408C10.8398 10.1875 10.5147 10.9653 10.5147 11.7763ZM18.407 16.0845C18.2805 16.0431 18.1426 16.052 18.0225 16.1093C17.9024 16.1667 17.8095 16.268 17.7633 16.3919C17.7171 16.5158 17.7213 16.6526 17.7749 16.7736C17.8286 16.8945 17.9275 16.9901 18.0509 17.0401C19.1122 17.4293 19.7718 17.9504 19.7718 18.4014C19.7718 19.2525 17.4241 20.44 13.6004 20.44C9.77668 20.44 7.42896 19.2525 7.42896 18.4014C7.42896 17.9504 8.08853 17.4293 9.14989 17.0407C9.27326 16.9907 9.37221 16.8951 9.42586 16.7742C9.47952 16.6533 9.48369 16.5164 9.43751 16.3925C9.39132 16.2686 9.29839 16.1673 9.17829 16.11C9.0582 16.0526 8.92033 16.0437 8.79375 16.0852C7.25025 16.649 6.40039 17.472 6.40039 18.4014C6.40039 20.3877 10.1103 21.4592 13.6004 21.4592C17.0905 21.4592 20.8004 20.3877 20.8004 18.4014C20.8004 17.472 19.9505 16.649 18.407 16.0845Z" fill="#0075FF"/>
</svg>
