<svg width="28" height="26" viewBox="0 0 28 26" fill="none" xmlns="http://www.w3.org/2000/svg">
<path d="M12.0292 7.7037C12.0292 7.32279 12.1432 6.95043 12.3567 6.63372C12.5703 6.317 12.8738 6.07015 13.2289 5.92438C13.5841 5.77861 13.9748 5.74047 14.3519 5.81478C14.7289 5.8891 15.0752 6.07252 15.347 6.34187C15.6188 6.61121 15.8039 6.95438 15.8789 7.32797C15.9539 7.70157 15.9154 8.08881 15.7683 8.44072C15.6212 8.79264 15.3721 9.09343 15.0525 9.30505C14.7328 9.51668 14.3571 9.62963 13.9727 9.62963C13.4572 9.62963 12.9629 9.42672 12.5984 9.06554C12.2339 8.70436 12.0292 8.21449 12.0292 7.7037ZM6.19861 7.7037C6.19861 5.66055 7.01766 3.70109 8.47558 2.25636C9.93351 0.811638 11.9109 0 13.9727 0C16.0345 0 18.0119 0.811638 19.4698 2.25636C20.9277 3.70109 21.7468 5.66055 21.7468 7.7037C21.7468 14.9199 14.7525 18.9631 14.4586 19.1329C14.3117 19.2161 14.1455 19.2598 13.9763 19.2598C13.8072 19.2598 13.641 19.2161 13.4941 19.1329C13.1929 18.9631 6.19861 14.9259 6.19861 7.7037ZM8.14213 7.7037C8.14213 12.7833 12.4956 16.1549 13.9727 17.1528C15.4486 16.1561 19.8033 12.7833 19.8033 7.7037C19.8033 6.17134 19.189 4.70174 18.0955 3.6182C17.0021 2.53465 15.5191 1.92593 13.9727 1.92593C12.4263 1.92593 10.9433 2.53465 9.84986 3.6182C8.75642 4.70174 8.14213 6.17134 8.14213 7.7037ZM23.055 15.8444C22.8158 15.7661 22.5553 15.7828 22.3284 15.8912C22.1015 15.9995 21.9259 16.1909 21.8386 16.4251C21.7513 16.6592 21.7592 16.9178 21.8606 17.1463C21.962 17.3748 22.149 17.5554 22.3821 17.6499C24.3875 18.3854 25.6338 19.37 25.6338 20.2222C25.6338 21.8304 21.1977 24.0741 13.9727 24.0741C6.74765 24.0741 2.31156 21.8304 2.31156 20.2222C2.31156 19.37 3.55785 18.3854 5.56332 17.6511C5.79643 17.5566 5.98339 17.376 6.08478 17.1475C6.18616 16.919 6.19405 16.6604 6.10678 16.4263C6.01951 16.1921 5.84391 16.0007 5.61698 15.8924C5.39006 15.784 5.12955 15.7673 4.89037 15.8456C1.97388 16.9108 0.368042 18.466 0.368042 20.2222C0.368042 23.9754 7.37808 26 13.9727 26C20.5673 26 27.5773 23.9754 27.5773 20.2222C27.5773 18.466 25.9715 16.9108 23.055 15.8444Z" fill="#0075FF"/>
</svg>
