<svg width="19" height="19" viewBox="0 0 19 19" fill="none" xmlns="http://www.w3.org/2000/svg">
<path d="M5 9H5.01M9 9H9.01M12.99 9H13M1 9C1 4.58172 4.58172 1 9 1C13.4183 1 17 4.58172 17 9C17 10.1989 16.7363 11.3362 16.2637 12.357L17.3848 16.0005C17.6319 16.8038 16.838 17.5352 16.0576 17.223L13.3597 16.1439C13.1283 16.0513 12.8706 16.0485 12.6372 16.136L12.5698 16.1613C12.0786 16.4067 11.5585 16.603 11.0161 16.7438C10.9469 16.7685 10.8779 16.7851 10.8097 16.7945C10.2282 16.9289 9.6224 17 9 17C4.58172 17 1 13.4183 1 9Z" stroke="black" stroke-width="1.5" stroke-linecap="round" stroke-linejoin="round"/>
</svg>
