<svg width="13" height="14" viewBox="0 0 13 14" fill="none" xmlns="http://www.w3.org/2000/svg">
<path d="M3.5129 7.08756H3.51998M6.34623 7.08756H6.35332M9.17248 7.08756H9.17957M0.679565 7.08756C0.679565 3.95795 3.21662 1.4209 6.34623 1.4209C9.47586 1.4209 12.0129 3.95795 12.0129 7.08756C12.0129 7.93679 11.8261 8.74237 11.4914 9.46544L12.2855 12.0463C12.4605 12.6153 11.8981 13.1333 11.3454 12.9122L9.43435 12.1478C9.27044 12.0822 9.08791 12.0803 8.92258 12.1422L8.87484 12.1602C8.52691 12.334 8.1585 12.473 7.7743 12.5728C7.72529 12.5903 7.67641 12.602 7.6281 12.6087C7.21621 12.7039 6.7871 12.7542 6.34623 12.7542C3.21662 12.7542 0.679565 10.2172 0.679565 7.08756Z" stroke="white" stroke-width="1.30769" stroke-linecap="round" stroke-linejoin="round"/>
</svg>
