<svg width="13" height="18" viewBox="0 0 13 18" fill="none" xmlns="http://www.w3.org/2000/svg">
<path d="M6.25 12.75C7.24424 12.749 8.19747 12.3535 8.90051 11.6505C9.60355 10.9475 9.99897 9.99424 10 9V4C10 3.00544 9.60491 2.05161 8.90165 1.34835C8.19839 0.645088 7.24456 0.25 6.25 0.25C5.25544 0.25 4.30161 0.645088 3.59835 1.34835C2.89509 2.05161 2.5 3.00544 2.5 4V9C2.50103 9.99424 2.89645 10.9475 3.59949 11.6505C4.30253 12.3535 5.25576 12.749 6.25 12.75ZM3.75 4C3.75 3.33696 4.01339 2.70107 4.48223 2.23223C4.95107 1.76339 5.58696 1.5 6.25 1.5C6.91304 1.5 7.54893 1.76339 8.01777 2.23223C8.48661 2.70107 8.75 3.33696 8.75 4V9C8.75 9.66304 8.48661 10.2989 8.01777 10.7678C7.54893 11.2366 6.91304 11.5 6.25 11.5C5.58696 11.5 4.95107 11.2366 4.48223 10.7678C4.01339 10.2989 3.75 9.66304 3.75 9V4ZM6.875 15.2188V17.125C6.875 17.2908 6.80915 17.4497 6.69194 17.5669C6.57473 17.6842 6.41576 17.75 6.25 17.75C6.08424 17.75 5.92527 17.6842 5.80806 17.5669C5.69085 17.4497 5.625 17.2908 5.625 17.125V15.2188C4.0841 15.062 2.65607 14.3393 1.61707 13.1907C0.578064 12.042 0.00190321 10.5489 0 9C0 8.83424 0.0658481 8.67527 0.183058 8.55806C0.300269 8.44085 0.45924 8.375 0.625 8.375C0.79076 8.375 0.949731 8.44085 1.06694 8.55806C1.18415 8.67527 1.25 8.83424 1.25 9C1.25 10.3261 1.77678 11.5979 2.71447 12.5355C3.65215 13.4732 4.92392 14 6.25 14C7.57608 14 8.84785 13.4732 9.78553 12.5355C10.7232 11.5979 11.25 10.3261 11.25 9C11.25 8.83424 11.3158 8.67527 11.4331 8.55806C11.5503 8.44085 11.7092 8.375 11.875 8.375C12.0408 8.375 12.1997 8.44085 12.3169 8.55806C12.4342 8.67527 12.5 8.83424 12.5 9C12.4981 10.5489 11.9219 12.042 10.8829 13.1907C9.84393 14.3393 8.4159 15.062 6.875 15.2188Z" fill="black" fill-opacity="0.5"/>
</svg>
