<svg width="17" height="16" viewBox="0 0 17 16" fill="none" xmlns="http://www.w3.org/2000/svg">
<path d="M5.05859 8C5.05859 8.26522 4.95324 8.51957 4.7657 8.70711C4.57816 8.89464 4.32381 9 4.05859 9C3.79338 9 3.53902 8.89464 3.35149 8.70711C3.16395 8.51957 3.05859 8.26522 3.05859 8C3.05859 7.73478 3.16395 7.48043 3.35149 7.29289C3.53902 7.10536 3.79338 7 4.05859 7C4.32381 7 4.57816 7.10536 4.7657 7.29289C4.95324 7.48043 5.05859 7.73478 5.05859 8ZM9.05859 8C9.05859 8.26522 8.95324 8.51957 8.7657 8.70711C8.57816 8.89464 8.32381 9 8.05859 9C7.79338 9 7.53902 8.89464 7.35149 8.70711C7.16395 8.51957 7.05859 8.26522 7.05859 8C7.05859 7.73478 7.16395 7.48043 7.35149 7.29289C7.53902 7.10536 7.79338 7 8.05859 7C8.32381 7 8.57816 7.10536 8.7657 7.29289C8.95324 7.48043 9.05859 7.73478 9.05859 8ZM13.0586 8C13.0586 8.26522 12.9532 8.51957 12.7657 8.70711C12.5782 8.89464 12.3238 9 12.0586 9C11.7934 9 11.539 8.89464 11.3515 8.70711C11.164 8.51957 11.0586 8.26522 11.0586 8C11.0586 7.73478 11.164 7.48043 11.3515 7.29289C11.539 7.10536 11.7934 7 12.0586 7C12.3238 7 12.5782 7.10536 12.7657 7.29289C12.9532 7.48043 13.0586 7.73478 13.0586 8ZM8.05859 0C5.93686 0 3.90203 0.842855 2.40174 2.34315C0.901449 3.84344 0.0585938 5.87827 0.0585938 8C0.0585938 10.1217 0.901449 12.1566 2.40174 13.6569C3.90203 15.1571 5.93686 16 8.05859 16C10.1803 16 12.2152 15.1571 13.7154 13.6569C15.2157 12.1566 16.0586 10.1217 16.0586 8C16.0586 5.87827 15.2157 3.84344 13.7154 2.34315C12.2152 0.842855 10.1803 0 8.05859 0ZM1.05859 8C1.05859 7.08075 1.23965 6.1705 1.59144 5.32122C1.94322 4.47194 2.45884 3.70026 3.10885 3.05025C3.75886 2.40024 4.53053 1.88463 5.37981 1.53284C6.22909 1.18106 7.13934 1 8.05859 1C8.97785 1 9.8881 1.18106 10.7374 1.53284C11.5867 1.88463 12.3583 2.40024 13.0083 3.05025C13.6584 3.70026 14.174 4.47194 14.5258 5.32122C14.8775 6.1705 15.0586 7.08075 15.0586 8C15.0586 9.85652 14.3211 11.637 13.0083 12.9497C11.6956 14.2625 9.91511 15 8.05859 15C6.20208 15 4.4216 14.2625 3.10885 12.9497C1.79609 11.637 1.05859 9.85652 1.05859 8Z" fill="#0075FF"/>
</svg>
