<svg width="16" height="16" viewBox="0 0 16 16" fill="none" xmlns="http://www.w3.org/2000/svg">
<g clip-path="url(#clip0_346_22478)">
<path d="M3.15224 10.7581C2.12189 9.72776 1.60671 9.21256 1.41501 8.54416C1.22331 7.87576 1.38714 7.16583 1.71479 5.746L1.90375 4.92721C2.1794 3.7327 2.31723 3.13544 2.72621 2.72646C3.1352 2.31748 3.73246 2.17964 4.92697 1.90399L5.74575 1.71504C7.16559 1.38738 7.87552 1.22356 8.54392 1.41526C9.21232 1.60695 9.72752 2.12213 10.7579 3.15248L11.9776 4.37224C13.7703 6.1649 14.6666 7.06123 14.6666 8.17503C14.6666 9.28883 13.7703 10.1852 11.9776 11.9778C10.1849 13.7705 9.28859 14.6668 8.17479 14.6668C7.06099 14.6668 6.16466 13.7705 4.372 11.9778L3.15224 10.7581Z" stroke="#EC1C24"/>
<path d="M6.68097 6.86224C7.20167 6.34154 7.20167 5.49732 6.68097 4.97662C6.16027 4.45593 5.31605 4.45593 4.79535 4.97662C4.27465 5.49732 4.27465 6.34154 4.79535 6.86224C5.31605 7.38294 6.16027 7.38294 6.68097 6.86224Z" stroke="#EC1C24"/>
</g>
<defs>
<clipPath id="clip0_346_22478">
<rect width="16" height="16" fill="white"/>
</clipPath>
</defs>
</svg>
