<svg width="17" height="20" viewBox="0 0 17 20" fill="none" xmlns="http://www.w3.org/2000/svg">
<path fill-rule="evenodd" clip-rule="evenodd" d="M8.53861 0C8.96344 0 9.30783 0.344392 9.30783 0.769221H7.76939C7.76939 0.344392 8.11378 0 8.53861 0ZM6.60868 1.97925L6.50346 1.65261L6.41249 1.37224C6.85635 1.22827 7.31088 1.12938 7.76939 1.07555V0.769385H9.30783V1.06347C9.81137 1.11459 10.3107 1.21991 10.7971 1.37942L10.797 1.37952C13.071 2.13315 14.8088 3.98679 15.4144 6.30459L13.9272 6.69536C13.4536 4.88176 12.0941 3.43119 10.315 2.84104L10.315 2.84094C9.7605 2.65932 9.18441 2.56772 8.6081 2.56618C8.58521 2.56823 8.56203 2.56928 8.53861 2.56928C8.51977 2.56928 8.50109 2.5686 8.48259 2.56727C7.94386 2.57806 7.40629 2.66756 6.88736 2.83582L6.5253 1.71991L6.64939 2.10461V2.10473L6.88731 2.838C5.0648 3.43076 3.66262 4.90039 3.15607 6.74872L3.15606 6.74872L3.10995 6.91779L1.62484 6.51574L1.67099 6.34549L1.67101 6.34549C2.31367 3.99583 4.09577 2.12742 6.41244 1.37443L6.60868 1.97925ZM2.83308 14.8429H2.83382H2.83404L2.834 14.8431L3.21041 14.9199L3.21045 14.9198C3.97908 15.0764 4.7529 15.1988 5.52963 15.2869L5.55706 15.29L5.55706 15.29C7.53847 15.5128 9.53868 15.5128 11.5201 15.29L11.5201 15.29L11.5489 15.2867C12.3252 15.1986 13.0985 15.0763 13.8667 14.9198L13.8667 14.9198L14.2432 14.8431L14.5508 16.3506L14.1744 16.4275L14.1744 16.4275C13.5455 16.5556 12.9134 16.6621 12.2792 16.7469C12.2733 16.7735 12.2671 16.8001 12.2606 16.8266L12.2606 16.8266L12.1765 17.1691L11.4389 16.9878L12.1755 17.169C11.845 18.5175 10.7891 19.5686 9.43909 19.893V19.8931L9.4391 19.8932L9.43909 19.8941L9.43889 19.8932C8.84717 20.0357 8.22981 20.0357 7.6381 19.8932L7.63707 19.8942L7.6374 19.8928C6.28775 19.5683 5.23221 18.5174 4.90174 17.1691L4.90172 17.1691L4.90169 17.1689L4.81762 16.8266C4.81103 16.8001 4.8047 16.7736 4.79863 16.747C4.1642 16.6621 3.53188 16.5556 2.90276 16.4275L2.90272 16.4275L2.52529 16.3506L2.52533 16.3504C1.09819 16.0598 0.0771484 14.7995 0.0771484 13.3435H1.61559C1.61367 14.069 2.12251 14.6958 2.83297 14.8429L2.83298 14.8429L2.83301 14.8429H2.83308ZM14.2432 14.8431L14.2431 14.8429H14.2442L14.2432 14.8431ZM6.42786 16.9171C6.65047 17.6503 7.24531 18.2154 7.99601 18.3966L7.96242 18.537L7.99604 18.3968C8.35296 18.4829 8.72424 18.4829 9.08116 18.3968L9.37596 19.6292L9.08217 18.3966C9.83299 18.2155 10.428 17.6504 10.6506 16.917C9.24487 17.0226 7.8336 17.0226 6.42786 16.9171ZM2.92708 10.759L2.92741 10.7609L1.84072 10.9468L1.84078 10.9469L2.92738 10.761L2.94959 10.8933L2.94997 10.8932C3.02485 11.3381 2.80895 11.7814 2.41254 11.9968L2.12799 11.4748L2.41249 11.9978C1.93762 12.2563 1.61558 12.7619 1.61558 13.3434H0.0781589C0.0769866 12.3369 0.568641 11.402 1.37986 10.8309C1.16062 9.39187 1.24378 7.92216 1.62486 6.51582L3.10997 6.91787C2.77085 8.16979 2.70844 9.48053 2.92708 10.759ZM15.4616 13.3435C15.4616 14.0748 14.9498 14.6994 14.2442 14.8429L14.5518 16.3506C15.9787 16.0572 17.0021 14.8002 17 13.3435H15.4616ZM14.6795 12.0052L14.679 12.0049V12.006L14.6795 12.0052ZM15.2105 11.0535L14.679 12.0039C14.2944 11.7885 14.0493 11.3434 14.1313 10.8675L14.1317 10.8675L14.1559 10.726L14.8128 10.838L14.1559 10.7251C14.3716 9.46632 14.3156 8.17597 13.9918 6.94055V6.9403L13.9908 6.94058L13.9272 6.69648V6.69546L15.4154 6.30572L15.479 6.5498L15.479 6.54979C15.8454 7.94691 15.9195 9.40404 15.6973 10.8301C16.5097 11.4015 17.0012 12.3371 17 13.3434H15.4616C15.4616 12.7682 15.1469 12.2668 14.6795 12.0052L15.2119 11.0537L15.2105 11.0535Z" fill="black"/>
</svg>
