<svg width="24" height="26" viewBox="0 0 24 26" fill="none" xmlns="http://www.w3.org/2000/svg">
<path d="M12.6867 0.538708C12.4977 0.370361 12.2534 0.277344 12.0003 0.277344C11.7472 0.277344 11.5029 0.370361 11.3139 0.538708C10.0477 1.66294 9.11735 3.11572 8.62598 4.73614C8.1346 6.35655 8.10134 8.08136 8.52988 9.71951C6.49935 8.52112 4.14663 7.98326 1.79708 8.18031C1.65759 8.19178 1.52174 8.23075 1.39738 8.29496C1.27301 8.35917 1.16258 8.44736 1.07245 8.55445C0.982319 8.66153 0.914273 8.78539 0.87223 8.9189C0.830187 9.0524 0.81498 9.1929 0.827484 9.33231C1.02588 11.5163 2.04988 13.6843 3.46908 15.3643C2.91211 15.3288 2.35328 15.3341 1.79708 15.3803C1.65759 15.3918 1.52174 15.4307 1.39738 15.495C1.27301 15.5592 1.16258 15.6474 1.07245 15.7544C0.982319 15.8615 0.914273 15.9854 0.87223 16.1189C0.830187 16.2524 0.81498 16.3929 0.827484 16.5323C1.05745 19.0643 2.22577 21.4189 4.10298 23.1336C5.98018 24.8483 8.43064 25.7992 10.9731 25.7995H13.0275C15.5697 25.7992 18.0199 24.8485 19.8971 23.1342C21.7743 21.4198 22.9427 19.0656 23.1731 16.5339C23.1858 16.3944 23.1708 16.2537 23.1288 16.12C23.0869 15.9863 23.0189 15.8623 22.9287 15.755C22.8386 15.6478 22.7281 15.5594 22.6036 15.4951C22.4791 15.4308 22.3431 15.3918 22.2035 15.3803C21.6473 15.3341 21.0885 15.3288 20.5315 15.3643C21.9507 13.6843 22.9747 11.5163 23.1731 9.33231C23.1854 9.19294 23.17 9.05252 23.1279 8.91911C23.0858 8.7857 23.0177 8.66192 22.9276 8.55488C22.8375 8.44784 22.7272 8.35965 22.6029 8.29537C22.4786 8.23109 22.3429 8.19199 22.2035 8.18031C19.8539 7.98326 17.5012 8.52112 15.4707 9.71951C15.8992 8.08136 15.866 6.35655 15.3746 4.73614C14.8832 3.11572 13.9529 1.66294 12.6867 0.538708ZM12.0003 20.0843C10.632 18.1859 8.71425 16.7529 6.50588 15.9787C6.48781 15.9641 6.46913 15.9502 6.44988 15.9371C4.52988 14.6299 2.90428 12.1995 2.49308 9.74511C4.90077 9.68307 7.24694 10.5101 9.08348 12.0683C10.2995 13.0971 10.6323 14.0363 10.9331 14.8811C11.0419 15.1851 11.1459 15.4779 11.2851 15.7563C11.3516 15.889 11.4537 16.0006 11.58 16.0786C11.7063 16.1566 11.8518 16.1979 12.0003 16.1979C12.1487 16.1979 12.2942 16.1566 12.4205 16.0786C12.5469 16.0006 12.649 15.889 12.7155 15.7563C12.8563 15.4779 12.9603 15.1851 13.0675 14.8795C13.3683 14.0379 13.7027 13.0971 14.9171 12.0683C16.7538 10.5092 19.1006 9.68152 21.5091 9.74351C21.0963 12.1995 19.4723 14.6299 17.5507 15.9371C17.5314 15.9501 17.5127 15.964 17.4947 15.9787C15.2863 16.7528 13.3685 18.1858 12.0003 20.0843ZM10.9731 24.1995C8.92645 24.1991 6.94723 23.4679 5.39192 22.1376C3.83662 20.8073 2.80748 18.9653 2.48988 16.9435C4.27645 16.8981 6.04147 17.3417 7.59434 18.2263C9.14721 19.1108 10.4289 20.4028 11.3011 21.9627C11.3704 22.0874 11.4718 22.1912 11.5947 22.2635C11.7176 22.3358 11.8577 22.374 12.0003 22.374C12.1429 22.374 12.2829 22.3358 12.4059 22.2635C12.5288 22.1912 12.6302 22.0874 12.6995 21.9627C13.5716 20.4028 14.8534 19.1108 16.4062 18.2263C17.9591 17.3417 19.7241 16.8981 21.5107 16.9435C21.1931 18.9653 20.164 20.8073 18.6086 22.1376C17.0533 23.4679 15.0741 24.1991 13.0275 24.1995H10.9731ZM12.0003 12.7051C10.6114 11.2881 9.83342 9.38293 9.83342 7.39871C9.83342 5.41449 10.6114 3.50936 12.0003 2.09231C13.3892 3.50936 14.1672 5.41449 14.1672 7.39871C14.1672 9.38293 13.3892 11.2881 12.0003 12.7051Z" fill="#0075FF"/>
</svg>
