<svg width="22" height="21" viewBox="0 0 22 21" fill="none" xmlns="http://www.w3.org/2000/svg">
<path d="M4.63742 14.1198C3.28508 12.7675 2.60891 12.0913 2.35731 11.214C2.10571 10.3367 2.32073 9.40494 2.75077 7.54141L2.99877 6.46675C3.36057 4.89896 3.54148 4.11506 4.07826 3.57826C4.61506 3.04148 5.39896 2.86057 6.96675 2.49877L8.04141 2.25077C9.90494 1.82073 10.8367 1.60571 11.714 1.85731C12.5913 2.10891 13.2675 2.78508 14.6198 4.13742L16.2207 5.73836C18.5736 8.09122 19.75 9.26765 19.75 10.7295C19.75 12.1914 18.5736 13.3678 16.2207 15.7207C13.8678 18.0736 12.6914 19.25 11.2295 19.25C9.76765 19.25 8.59122 18.0736 6.23836 15.7207L4.63742 14.1198Z" stroke="white" stroke-width="1.5"/>
<path d="M9.26871 9.00648C9.95212 8.32306 9.95212 7.21502 9.26871 6.53161C8.58529 5.84819 7.47725 5.84819 6.79383 6.53161C6.11042 7.21502 6.11042 8.32306 6.79383 9.00648C7.47725 9.6899 8.58529 9.6899 9.26871 9.00648Z" stroke="white" stroke-width="1.5"/>
</svg>
