<svg width="9" height="9" viewBox="0 0 9 9" fill="none" xmlns="http://www.w3.org/2000/svg">
<path d="M8.52033 8.28134C7.9254 7.25282 7.00861 6.51532 5.93869 6.16571C6.46792 5.85066 6.8791 5.37059 7.10908 4.79922C7.33907 4.22786 7.37514 3.59681 7.21176 3.00296C7.04838 2.40911 6.69458 1.88532 6.20469 1.51201C5.71481 1.1387 5.11592 0.936523 4.50001 0.936523C3.8841 0.936523 3.28522 1.1387 2.79534 1.51201C2.30545 1.88532 1.95165 2.40911 1.78827 3.00296C1.62489 3.59681 1.66096 4.22786 1.89095 4.79922C2.12093 5.37059 2.53211 5.85066 3.06134 6.16571C1.99142 6.51493 1.07462 7.25243 0.479702 8.28134C0.457885 8.31691 0.443414 8.35649 0.437143 8.39775C0.430871 8.43901 0.432927 8.4811 0.443188 8.52155C0.453449 8.562 0.471707 8.59998 0.496886 8.63326C0.522065 8.66654 0.553654 8.69444 0.58979 8.71531C0.625925 8.73619 0.665875 8.74961 0.707283 8.75479C0.74869 8.75997 0.790717 8.75681 0.830882 8.74549C0.871047 8.73417 0.908538 8.71491 0.941142 8.68887C0.973746 8.66282 1.0008 8.63051 1.02072 8.59384C1.75665 7.32196 3.05744 6.56259 4.50001 6.56259C5.94259 6.56259 7.24337 7.32196 7.97931 8.59384C7.99923 8.63051 8.02628 8.66282 8.05889 8.68887C8.09149 8.71491 8.12898 8.73417 8.16915 8.74549C8.20931 8.75681 8.25134 8.75997 8.29275 8.75479C8.33415 8.74961 8.3741 8.73619 8.41024 8.71531C8.44637 8.69444 8.47796 8.66654 8.50314 8.63326C8.52832 8.59998 8.54658 8.562 8.55684 8.52155C8.5671 8.4811 8.56916 8.43901 8.56289 8.39775C8.55661 8.35649 8.54214 8.31691 8.52033 8.28134ZM2.31251 3.75009C2.31251 3.31744 2.44081 2.89451 2.68117 2.53478C2.92154 2.17504 3.26318 1.89467 3.66289 1.7291C4.06261 1.56353 4.50244 1.52021 4.92677 1.60462C5.35111 1.68902 5.74088 1.89736 6.04681 2.20329C6.35274 2.50922 6.56108 2.89899 6.64548 3.32333C6.72989 3.74766 6.68657 4.18749 6.521 4.58721C6.35543 4.98692 6.07506 5.32856 5.71532 5.56893C5.35559 5.80929 4.93266 5.93759 4.50001 5.93759C3.92004 5.93697 3.364 5.7063 2.9539 5.2962C2.5438 4.8861 2.31313 4.33006 2.31251 3.75009Z" fill="#0075FF"/>
</svg>
