<svg width="35" height="35" viewBox="0 0 35 35" fill="none" xmlns="http://www.w3.org/2000/svg">
<rect width="35" height="35" rx="5" fill="white" fill-opacity="0.18"/>
<path d="M10.6374 21.1198C9.28508 19.7675 8.60891 19.0913 8.35731 18.214C8.10571 17.3367 8.32073 16.4049 8.75077 14.5414L8.99877 13.4668C9.36057 11.899 9.54148 11.1151 10.0783 10.5783C10.6151 10.0415 11.399 9.86057 12.9668 9.49877L14.0414 9.25077C15.9049 8.82073 16.8367 8.60571 17.714 8.85731C18.5913 9.10891 19.2675 9.78508 20.6198 11.1374L22.2207 12.7384C24.5736 15.0912 25.75 16.2677 25.75 17.7295C25.75 19.1914 24.5736 20.3678 22.2207 22.7207C19.8678 25.0736 18.6914 26.25 17.2295 26.25C15.7677 26.25 14.5912 25.0736 12.2384 22.7207L10.6374 21.1198Z" stroke="white" stroke-width="1.5"/>
<path d="M15.2687 16.0065C15.9521 15.3231 15.9521 14.215 15.2687 13.5316C14.5853 12.8482 13.4773 12.8482 12.7938 13.5316C12.1104 14.215 12.1104 15.3231 12.7938 16.0065C13.4773 16.6899 14.5853 16.6899 15.2687 16.0065Z" stroke="white" stroke-width="1.5"/>
</svg>
