<svg width="25" height="24" viewBox="0 0 25 24" fill="none" xmlns="http://www.w3.org/2000/svg">
<path d="M9.97583 12.4009H10.8641V13.6595H9.97583V12.4009Z" fill="#D5D9CF"/>
<path d="M10.993 13.7884H9.84692V12.272H10.993V13.7884ZM10.1047 13.5306H10.7352V12.5298H10.1047V13.5306Z" fill="#333336"/>
<path d="M14.2133 12.4009H15.1015V13.6595H14.2133V12.4009Z" fill="#D5D9CF"/>
<path d="M15.2304 13.7884H14.0844V12.272H15.2304V13.7884ZM14.3422 13.5306H14.9726V12.5298H14.3422V13.5306Z" fill="#333336"/>
<path d="M15.7461 17.6134H12.9289V14.7212H12.0898V17.6134H9.37578C9.32188 17.6134 9.27734 17.6579 9.27734 17.7118V18.1782C9.27734 18.2321 9.32188 18.2767 9.37578 18.2767H15.7461C15.8 18.2767 15.8445 18.2321 15.8445 18.1782V17.7118C15.8445 17.6579 15.8 17.6134 15.7461 17.6134Z" fill="#D5D9CF"/>
<path d="M15.7461 18.4056H9.37578C9.24922 18.4056 9.14844 18.3024 9.14844 18.1782V17.7118C9.14844 17.5853 9.25156 17.4845 9.37578 17.4845H11.9633V14.5923H13.0602V17.4845H15.7461C15.8727 17.4845 15.9734 17.5876 15.9734 17.7118V18.1782C15.9734 18.3024 15.8703 18.4056 15.7461 18.4056ZM9.40391 18.1478H15.7133V17.7423H12.8V14.8501H12.2187V17.7423H9.40391V18.1478Z" fill="#333336"/>
<path d="M5.51794 9.78271H19.4797V12.4944H5.51794V9.78271Z" fill="#D8A128"/>
<path d="M19.6109 12.6233H5.38904V9.65381H19.6086V12.6233H19.6109ZM5.64685 12.3655H19.3508V9.91162H5.64685V12.3655Z" fill="#333336"/>
<path d="M4.90857 10.0713H6.21169V19.4932H4.90857V10.0713Z" fill="#FFD632"/>
<path d="M6.34292 19.6221H4.78198V9.94238H6.34292V19.6221ZM5.03745 19.3643H6.08276V10.2002H5.03745V19.3643Z" fill="#333336"/>
<path d="M18.8821 10.0713H20.1571V19.4932H18.8821V10.0713Z" fill="#FFD632"/>
<path d="M20.286 19.6221H18.7532V9.94238H20.286V19.6221ZM19.011 19.3643H20.0282V10.2002H19.011V19.3643Z" fill="#333336"/>
<path d="M4.41406 8.86865H20.5836V10.3054H4.41406V8.86865Z" fill="#FFD632"/>
<path d="M20.7148 10.4343H4.28516V8.73975H20.7125V10.4343H20.7148ZM4.54297 10.1765H20.4547V8.99756H4.54297V10.1765Z" fill="#333336"/>
<path d="M16.0157 12.5018H9.05707L8.61176 5.35566C8.58598 4.89395 8.9516 4.50488 9.41566 4.50488H15.6594C16.1211 4.50488 16.4891 4.89395 16.4633 5.35566L16.0157 12.5018Z" fill="#68A240"/>
<path d="M16.1351 12.6303H8.93511L8.48277 5.36465C8.4687 5.10449 8.55777 4.8584 8.73589 4.6709C8.91402 4.4834 9.15542 4.37793 9.41323 4.37793H15.657C15.9171 4.37793 16.1562 4.48105 16.3343 4.6709C16.5125 4.8584 16.6015 5.10684 16.5875 5.36465L16.1351 12.6303ZM9.17652 12.3725H15.8937L16.332 5.34824C16.3437 5.16074 16.2781 4.98262 16.1492 4.84668C16.0203 4.71074 15.8468 4.63574 15.6593 4.63574H9.41323C9.22573 4.63574 9.0523 4.71074 8.92339 4.84668C8.79448 4.98262 8.72886 5.16074 8.74058 5.34824L9.17652 12.3725Z" fill="#333336"/>
<path d="M16.0156 14.7211H9.05469V13.8C9.05469 13.5187 9.28437 13.2891 9.56562 13.2891H15.5047C15.7859 13.2891 16.0156 13.5187 16.0156 13.8V14.7211Z" fill="#68A240"/>
<path d="M16.1445 14.85H8.92578V13.8C8.92578 13.4461 9.21406 13.1602 9.56562 13.1602H15.5047C15.8586 13.1602 16.1445 13.4484 16.1445 13.8V14.85ZM9.18359 14.5922H15.8867V13.8C15.8867 13.5891 15.7156 13.418 15.5047 13.418H9.56562C9.35469 13.418 9.18359 13.5891 9.18359 13.8V14.5922Z" fill="#333336"/>
<path d="M6.71802 9.3916H8.29771V10.3244H6.71802V9.3916Z" fill="#68A240"/>
<path d="M8.42661 10.4553H6.58911V9.26465H8.42661V10.4553ZM6.84692 10.1975H8.1688V9.52246H6.84692V10.1975Z" fill="#333336"/>
<path d="M9.13672 14.0717H7.37891V10.2021H7.63672V13.8139H9.13672V14.0717Z" fill="#333336"/>
<path d="M18.4111 10.3269H16.8314V9.39404H18.4111V10.3269Z" fill="#68A240"/>
<path d="M18.5399 10.4553H16.7024V9.26465H18.5399V10.4553ZM16.9579 10.1975H18.2797V9.52246H16.9579V10.1975Z" fill="#333336"/>
<path d="M17.75 14.0717H15.9899V13.8139H17.4922V10.2021H17.75V14.0717Z" fill="#333336"/>
<path d="M9.33594 18.8131C9.33594 18.9927 9.4073 19.165 9.53433 19.292C9.66135 19.4191 9.83364 19.4904 10.0133 19.4904C10.1929 19.4904 10.3652 19.4191 10.4922 19.292C10.6193 19.165 10.6906 18.9927 10.6906 18.8131C10.6906 18.6334 10.6193 18.4612 10.4922 18.3341C10.3652 18.2071 10.1929 18.1357 10.0133 18.1357C9.83364 18.1357 9.66135 18.2071 9.53433 18.3341C9.4073 18.4612 9.33594 18.6334 9.33594 18.8131Z" fill="#D5D9CF"/>
<path d="M10.0133 19.6218C9.56797 19.6218 9.20703 19.2608 9.20703 18.8155C9.20703 18.3702 9.56797 18.0093 10.0133 18.0093C10.4586 18.0093 10.8195 18.3702 10.8195 18.8155C10.8195 19.2608 10.4586 19.6218 10.0133 19.6218ZM10.0133 18.2647C9.71094 18.2647 9.46484 18.5108 9.46484 18.8132C9.46484 19.1155 9.71094 19.3616 10.0133 19.3616C10.3156 19.3616 10.5617 19.1155 10.5617 18.8132C10.5617 18.5108 10.3156 18.2647 10.0133 18.2647Z" fill="#333336"/>
<path d="M14.525 18.8131C14.525 18.9927 14.5964 19.165 14.7234 19.292C14.8504 19.4191 15.0227 19.4904 15.2024 19.4904C15.382 19.4904 15.5543 19.4191 15.6813 19.292C15.8083 19.165 15.8797 18.9927 15.8797 18.8131C15.8797 18.6334 15.8083 18.4612 15.6813 18.3341C15.5543 18.2071 15.382 18.1357 15.2024 18.1357C15.0227 18.1357 14.8504 18.2071 14.7234 18.3341C14.5964 18.4612 14.525 18.6334 14.525 18.8131Z" fill="#D5D9CF"/>
<path d="M15.2024 19.6218C14.7571 19.6218 14.3961 19.2608 14.3961 18.8155C14.3961 18.3702 14.7571 18.0093 15.2024 18.0093C15.6477 18.0093 16.0086 18.3702 16.0086 18.8155C16.0086 19.2608 15.6477 19.6218 15.2024 19.6218ZM15.2024 18.2647C14.9 18.2647 14.6539 18.5108 14.6539 18.8132C14.6539 19.1155 14.9 19.3616 15.2024 19.3616C15.5047 19.3616 15.7508 19.1155 15.7508 18.8132C15.7508 18.5108 15.5047 18.2647 15.2024 18.2647Z" fill="#333336"/>
<path d="M11.6703 14.7446H13.3484V15.7384H11.6703V14.7446Z" fill="#D5D9CF"/>
<path d="M13.4796 15.8673H11.5437V14.6157H13.4796V15.8673ZM11.7992 15.6095H13.2195V14.8735H11.7992V15.6095Z" fill="#333336"/>
</svg>
