<svg width="28" height="28" viewBox="0 0 28 28" fill="none" xmlns="http://www.w3.org/2000/svg">
<path d="M23.3337 8.66797C24.0803 8.66797 24.667 9.2413 24.667 10.0013C24.667 10.3549 24.5265 10.6941 24.2765 10.9441C24.0264 11.1942 23.6873 11.3346 23.3337 11.3346C22.5737 11.3346 22.0003 10.7346 22.0003 10.0013C22.0003 9.2413 22.5737 8.66797 23.3337 8.66797ZM0.666992 0.667969V12.668C0.666992 16.6146 3.58699 20.0013 7.52033 20.548C8.34699 24.5613 11.8937 27.3346 16.0003 27.3346C17.1384 27.3346 18.2654 27.1105 19.3169 26.6749C20.3684 26.2394 21.3238 25.601 22.1286 24.7962C22.9334 23.9915 23.5717 23.036 24.0073 21.9846C24.4428 20.9331 24.667 19.8061 24.667 18.668V13.748C26.2137 13.188 27.3337 11.7213 27.3337 10.0013C27.3337 8.94044 26.9122 7.92302 26.1621 7.17288C25.4119 6.42273 24.3945 6.0013 23.3337 6.0013C22.2728 6.0013 21.2554 6.42273 20.5052 7.17288C19.7551 7.92302 19.3337 8.94044 19.3337 10.0013C19.3337 11.7213 20.4537 13.2013 22.0003 13.748V18.548C22.0003 21.8813 19.3337 24.548 16.0003 24.548C13.3337 24.548 11.0937 22.9346 10.2937 20.5346C14.0003 19.7346 16.667 16.4013 16.667 12.668V0.667969H11.3337V4.66797H14.0003V12.668C14.0003 14.0825 13.4384 15.439 12.4382 16.4392C11.438 17.4394 10.0815 18.0013 8.66699 18.0013C7.2525 18.0013 5.89595 17.4394 4.89576 16.4392C3.89556 15.439 3.33366 14.0825 3.33366 12.668V4.66797H6.00033V0.667969H0.666992Z" fill="#0075FF"/>
</svg>
