<svg width="24" height="24" viewBox="0 0 24 24" fill="none" xmlns="http://www.w3.org/2000/svg">
<path d="M10.8001 19C10.5789 19 10.4001 18.7765 10.4001 18.5V17C10.4001 16.7235 10.5789 16.5 10.8001 16.5C11.0213 16.5 11.2001 16.7235 11.2001 17V18.5C11.2001 18.7764 11.0213 19 10.8001 19Z" fill="#2F3744"/>
<path d="M13.2 19C12.9788 19 12.8 18.7765 12.8 18.5V17C12.8 16.7235 12.9788 16.5 13.2 16.5C13.4212 16.5 13.6 16.7235 13.6 17V18.5C13.6 18.7764 13.4212 19 13.2 19Z" fill="#2F3744"/>
<path d="M10.8001 24C10.5789 24 10.4001 23.7765 10.4001 23.5V21C10.4001 20.7235 10.5789 20.5 10.8001 20.5C11.0213 20.5 11.2001 20.7235 11.2001 21V23.5C11.2001 23.7765 11.0213 24 10.8001 24Z" fill="#2F3744"/>
<path d="M13.2 24C12.9788 24 12.8 23.7765 12.8 23.5V21C12.8 20.7235 12.9788 20.5 13.2 20.5C13.4212 20.5 13.6 20.7235 13.6 21V23.5C13.6 23.7765 13.4212 24 13.2 24Z" fill="#2F3744"/>
<path d="M14.4001 21H9.6001V19.768C9.6001 19.0675 10.0541 18.5 10.6145 18.5H13.3857C13.9461 18.5 14.4002 19.0675 14.4002 19.768L14.4001 21Z" fill="#464F5D"/>
<path d="M9.99992 12C9.99992 15.3135 7.8507 18 5.19991 18C2.54913 18 0.399902 15.3135 0.399902 12C0.399902 8.68652 2.54913 6 5.19991 6C7.8507 6 9.99992 8.68652 9.99992 12Z" fill="#24AE5F"/>
<path d="M5.19997 14.5001C5.09755 14.5001 4.99517 14.4511 4.91717 14.3536L3.71717 12.8536C3.56075 12.6581 3.56075 12.3421 3.71717 12.1466C3.87359 11.9511 4.12639 11.9511 4.28276 12.1466L5.48277 13.6466C5.63919 13.8422 5.63919 14.1582 5.48277 14.3536C5.40477 14.4511 5.30239 14.5001 5.19997 14.5001Z" fill="#804537"/>
<path d="M5.20004 14.5001C5.09762 14.5001 4.99524 14.4511 4.91724 14.3536C4.76082 14.1581 4.76082 13.8421 4.91724 13.6466L6.11725 12.1466C6.27367 11.9511 6.52646 11.9511 6.68284 12.1466C6.83926 12.3422 6.83926 12.6582 6.68284 12.8536L5.48284 14.3536C5.40484 14.4511 5.30246 14.5001 5.20004 14.5001Z" fill="#804537"/>
<path d="M5.20003 24C4.97883 24 4.80005 23.7765 4.80005 23.5V14C4.80005 13.7235 4.97883 13.5 5.20003 13.5C5.42124 13.5 5.60002 13.7235 5.60002 14V23.5C5.60007 23.7765 5.42124 24 5.20003 24Z" fill="#804537"/>
<path d="M23.6001 7.5C23.6001 11.642 20.9137 15 17.6001 15C14.2865 15 11.6001 11.642 11.6001 7.5C11.6001 3.35801 14.2865 0 17.6001 0C20.9137 0 23.6001 3.35801 23.6001 7.5Z" fill="#24AE5F"/>
<path d="M17.6001 11.0001C17.4977 11.0001 17.3953 10.9511 17.3173 10.8536L16.1173 9.35364C15.9609 9.15811 15.9609 8.84211 16.1173 8.64665C16.2737 8.45112 16.5265 8.45112 16.6829 8.64665L17.8829 10.1466C18.0393 10.3422 18.0393 10.6582 17.8829 10.8536C17.8049 10.9511 17.7025 11.0001 17.6001 11.0001Z" fill="#804537"/>
<path d="M17.6001 11.0001C17.4976 11.0001 17.3953 10.9511 17.3173 10.8536C17.1608 10.6581 17.1608 10.3421 17.3173 10.1466L18.5173 8.64665C18.6737 8.45112 18.9265 8.45112 19.0829 8.64665C19.2393 8.84217 19.2393 9.15817 19.0829 9.35364L17.8829 10.8536C17.8049 10.9511 17.7024 11.0001 17.6001 11.0001Z" fill="#804537"/>
<path d="M17.6002 24C17.379 24 17.2002 23.7765 17.2002 23.5V10.5C17.2002 10.2235 17.379 10 17.6002 10C17.8214 10 18.0002 10.2235 18.0002 10.5V23.5C18.0002 23.7765 17.8214 24 17.6002 24Z" fill="#804537"/>
<path d="M23.6001 24H0.399985C0.178782 24 0 23.7765 0 23.5C0 23.2235 0.178782 23 0.399985 23H23.6C23.8212 23 24 23.2235 24 23.5C24 23.7765 23.8213 24 23.6001 24Z" fill="#95A5A5"/>
</svg>
