<svg width="30" height="20" viewBox="0 0 30 20" fill="none" xmlns="http://www.w3.org/2000/svg">
<path d="M15 2.66667C20.0534 2.66667 24.56 5.50667 26.76 10C24.56 14.4933 20.0667 17.3333 15 17.3333C9.93337 17.3333 5.44004 14.4933 3.24004 10C5.44004 5.50667 9.94671 2.66667 15 2.66667ZM15 0C8.33337 0 2.64004 4.14667 0.333374 10C2.64004 15.8533 8.33337 20 15 20C21.6667 20 27.36 15.8533 29.6667 10C27.36 4.14667 21.6667 0 15 0ZM15 6.66667C16.84 6.66667 18.3334 8.16 18.3334 10C18.3334 11.84 16.84 13.3333 15 13.3333C13.16 13.3333 11.6667 11.84 11.6667 10C11.6667 8.16 13.16 6.66667 15 6.66667ZM15 4C11.6934 4 9.00004 6.69333 9.00004 10C9.00004 13.3067 11.6934 16 15 16C18.3067 16 21 13.3067 21 10C21 6.69333 18.3067 4 15 4Z" fill="#0075FF"/>
</svg>
