<svg width="29" height="24" viewBox="0 0 29 24" fill="none" xmlns="http://www.w3.org/2000/svg">
<path d="M27.2891 22.5C27.2891 20.0612 24.8768 17.9878 21.5113 17.2178M18.6224 22.5C18.6224 19.406 14.7426 16.9 9.95573 16.9C5.16884 16.9 1.28906 19.406 1.28906 22.5M18.6224 12.7C20.1548 12.7 21.6244 12.11 22.7079 11.0598C23.7914 10.0096 24.4002 8.58521 24.4002 7.1C24.4002 5.61479 23.7914 4.19041 22.7079 3.1402C21.6244 2.09 20.1548 1.5 18.6224 1.5M9.95573 12.7C8.42337 12.7 6.95377 12.11 5.87022 11.0598C4.78668 10.0096 4.17795 8.58521 4.17795 7.1C4.17795 5.61479 4.78668 4.19041 5.87022 3.1402C6.95377 2.09 8.42337 1.5 9.95573 1.5C11.4881 1.5 12.9577 2.09 14.0412 3.1402C15.1248 4.19041 15.7335 5.61479 15.7335 7.1C15.7335 8.58521 15.1248 10.0096 14.0412 11.0598C12.9577 12.11 11.4881 12.7 9.95573 12.7Z" stroke="#A4A4A4" stroke-width="2" stroke-linecap="round" stroke-linejoin="round"/>
</svg>
