<svg width="14" height="14" viewBox="0 0 14 14" fill="none" xmlns="http://www.w3.org/2000/svg">
<path d="M11.8037 11.5871C11.0294 10.2486 9.83627 9.28878 8.44383 8.83378C9.13259 8.42376 9.66772 7.79897 9.96703 7.05538C10.2663 6.31179 10.3133 5.49051 10.1007 4.71766C9.88802 3.94481 9.42757 3.26312 8.79002 2.77728C8.15247 2.29144 7.37306 2.02832 6.57149 2.02832C5.76992 2.02832 4.99051 2.29144 4.35296 2.77728C3.7154 3.26312 3.25496 3.94481 3.04233 4.71766C2.8297 5.49051 2.87664 6.31179 3.17595 7.05538C3.47526 7.79897 4.01039 8.42376 4.69915 8.83378C3.30671 9.28827 2.11356 10.2481 1.3393 11.5871C1.31091 11.6334 1.29208 11.6849 1.28392 11.7386C1.27575 11.7923 1.27843 11.8471 1.29178 11.8998C1.30514 11.9524 1.3289 12.0018 1.36167 12.0451C1.39444 12.0885 1.43555 12.1248 1.48258 12.1519C1.5296 12.1791 1.5816 12.1966 1.63549 12.2033C1.68938 12.2101 1.74407 12.2059 1.79634 12.1912C1.84862 12.1765 1.89741 12.1514 1.93984 12.1175C1.98227 12.0836 2.01748 12.0416 2.0434 11.9938C3.00118 10.3386 4.69406 9.35029 6.57149 9.35029C8.44891 9.35029 10.1418 10.3386 11.0996 11.9938C11.1255 12.0416 11.1607 12.0836 11.2031 12.1175C11.2456 12.1514 11.2944 12.1765 11.3466 12.1912C11.3989 12.2059 11.4536 12.2101 11.5075 12.2033C11.5614 12.1966 11.6134 12.1791 11.6604 12.1519C11.7074 12.1248 11.7485 12.0885 11.7813 12.0451C11.8141 12.0018 11.8378 11.9524 11.8512 11.8998C11.8645 11.8471 11.8672 11.7923 11.8591 11.7386C11.8509 11.6849 11.8321 11.6334 11.8037 11.5871ZM3.72459 5.69C3.72459 5.12693 3.89156 4.57652 4.20438 4.10835C4.5172 3.64018 4.96183 3.27528 5.48203 3.05981C6.00223 2.84433 6.57465 2.78796 7.12689 2.8978C7.67913 3.00765 8.1864 3.27879 8.58455 3.67694C8.98269 4.07508 9.25383 4.58235 9.36368 5.13459C9.47353 5.68684 9.41715 6.25925 9.20168 6.77946C8.9862 7.29966 8.62131 7.74428 8.15314 8.0571C7.68497 8.36992 7.13455 8.53689 6.57149 8.53689C5.81669 8.53608 5.09304 8.23588 4.55932 7.70216C4.0256 7.16844 3.7254 6.44479 3.72459 5.69Z" fill="white"/>
</svg>
