<svg width="11" height="14" viewBox="0 0 11 14" fill="none" xmlns="http://www.w3.org/2000/svg">
<path d="M4.91462 2.40134C4.81599 2.13281 4.61835 1.91221 4.36224 1.78478C4.10613 1.65734 3.81096 1.63273 3.53729 1.716C2.23995 2.116 1.33329 3.22934 1.52795 4.51734C1.74702 5.94652 2.23134 7.32215 2.95595 8.57333C3.6739 9.82118 4.61535 10.9263 5.73329 11.8333C6.73862 12.6467 8.14929 12.4227 9.14395 11.4893C9.35318 11.293 9.48013 11.0245 9.49918 10.7382C9.51824 10.4519 9.42798 10.169 9.24662 9.94667L8.53462 9.076C8.39201 8.90092 8.20008 8.77273 7.98373 8.70807C7.76738 8.6434 7.53658 8.64523 7.32129 8.71334L5.67862 9.23334L5.39195 8.93734C5.03091 8.5626 4.71498 8.14688 4.45062 7.69867C4.1946 7.2451 3.9949 6.76197 3.85595 6.26L3.74529 5.86667L5.01195 4.7C5.17955 4.54511 5.29712 4.34374 5.34961 4.12165C5.4021 3.89957 5.38713 3.66687 5.30662 3.45334L4.91462 2.40134ZM3.14529 0.441336C3.74416 0.258106 4.39043 0.310841 4.95167 0.588736C5.51292 0.866631 5.94663 1.34864 6.16395 1.936L6.55462 2.98667C6.7275 3.44819 6.75895 3.95075 6.64496 4.43022C6.53097 4.9097 6.27671 5.34433 5.91462 5.67867L5.26129 6.28C5.34529 6.512 5.45862 6.77734 5.60529 7.03467C5.75195 7.288 5.92262 7.51867 6.07862 7.70667L6.91862 7.44C7.38824 7.29174 7.89154 7.28783 8.3634 7.42879C8.83526 7.56976 9.25395 7.8491 9.56529 8.23067L10.2773 9.10134C10.673 9.58521 10.8702 10.2013 10.8291 10.825C10.788 11.4487 10.5117 12.0335 10.056 12.4613C8.73062 13.7053 6.56662 14.2213 4.89595 12.8693C3.65095 11.8595 2.60238 10.6293 1.80262 9.24C0.994086 7.84454 0.453684 6.31016 0.209288 4.716C-0.110712 2.592 1.41329 0.974669 3.14529 0.442669" fill="#0075FF"/>
</svg>
