<svg width="30" height="28" viewBox="0 0 30 28" fill="none" xmlns="http://www.w3.org/2000/svg">
<path d="M3.74114 21.127L3.74125 21.1273C4.19802 22.4183 5.66189 23.3702 7.37451 23.3702H7.45451H8.25567L8.43043 24.1521C8.56247 24.7428 8.91714 25.2925 9.45833 25.6973C10.001 26.1032 10.692 26.3328 11.4152 26.3329L3.74114 21.127ZM3.74114 21.127C3.35391 20.0337 3.51988 19.0466 3.99318 18.2687L4.51712 17.4075L3.65181 16.8905C2.57174 16.2451 1.90906 15.173 1.90906 13.9995L1.90906 13.9989C1.90851 13.2051 2.21674 12.423 2.80142 11.7961C3.3881 11.1671 4.21529 10.7371 5.14141 10.6041L6.93782 10.346L5.76007 8.96526C5.38672 8.52755 5.17772 8.00698 5.14599 7.47551C5.11429 6.94438 5.25999 6.40999 5.57543 5.94286C5.8919 5.4742 6.36735 5.09209 6.94872 4.86199C7.53052 4.63172 8.18017 4.56929 8.80661 4.68649L9.99051 4.90799V3.70355V3.63021C9.99051 2.90451 10.4079 2.216 11.1086 1.90866L11.1154 1.90568L11.1221 1.9026C11.5967 1.68598 12.142 1.6156 12.6709 1.7073C12.787 1.73226 12.875 1.78918 12.929 1.85117C12.9826 1.91266 13.0005 1.97482 13 2.02593L13 2.02593V2.03555V25.7395H12.9999M3.74114 21.127L12.9999 25.7395M12.9999 25.7395L13.0001 25.7529M12.9999 25.7395L13.0001 25.7529M13.0001 25.7529C13.0006 25.793 12.9897 25.8385 12.9598 25.8855C12.9301 25.932 12.8806 25.981 12.8082 26.0188M13.0001 25.7529L12.8082 26.0188M23.9712 10.346L25.149 8.96526C25.5223 8.52754 25.7313 8.00698 25.763 7.47551C25.7947 6.94438 25.649 6.40999 25.3336 5.94286C25.0171 5.4742 24.5417 5.09209 23.9603 4.86199C23.3785 4.63172 22.7289 4.56929 22.1024 4.68649L20.9185 4.90799V3.70355V3.63021C20.9185 2.90648 20.5003 2.21625 19.799 1.90866L19.792 1.90559L19.7851 1.90242C19.3113 1.68593 18.7668 1.61557 18.2386 1.70721C18.1225 1.7323 18.0344 1.7893 17.9803 1.85141C17.9266 1.91307 17.9086 1.97546 17.909 2.02682L17.9091 2.03555H17.9091V25.7382C17.9091 25.8408 17.9683 25.9531 18.093 26.013L18.0942 26.0136C18.5137 26.216 18.9851 26.3328 19.4936 26.3329L23.9712 10.346ZM23.9712 10.346L25.7676 10.6041M23.9712 10.346L25.7676 10.6041M25.7676 10.6041C26.6937 10.7371 27.5209 11.1671 28.1076 11.7961C28.6922 12.4229 29.0005 13.205 29 13.9986L25.7676 10.6041ZM22.653 23.3689H23.4545H23.536C25.2473 23.3689 26.7125 22.4169 27.1692 21.126L27.1693 21.1257C27.5566 20.0324 27.3906 19.0452 26.9173 18.2673L26.3913 17.4028L27.262 16.8871C27.8075 16.5641 28.2463 16.1268 28.5462 15.6223C28.8457 15.1186 28.9994 14.5608 29 13.9989L22.653 23.3689ZM22.653 23.3689L22.4785 24.1511M22.653 23.3689L22.4785 24.1511M22.4785 24.1511C22.3467 24.742 21.9921 25.2919 21.4509 25.6969C20.9083 26.103 20.2172 26.3327 19.4938 26.3329L22.4785 24.1511ZM12.8082 26.0188C12.3904 26.2177 11.9203 26.3329 11.4154 26.3329L12.8082 26.0188Z" stroke="#0075FF" stroke-width="2"/>
</svg>
