<svg width="24" height="24" viewBox="0 0 24 24" fill="none" xmlns="http://www.w3.org/2000/svg">
<path d="M21.3333 2.66667V21.3333H2.66667V2.66667H21.3333ZM21.3333 0H2.66667C1.18667 0 0 1.18667 0 2.66667V21.3333C0 22.8133 1.18667 24 2.66667 24H21.3333C22.8133 24 24 22.8133 24 21.3333V2.66667C24 1.18667 22.8133 0 21.3333 0ZM12 4C12.7333 4 13.3333 4.6 13.3333 5.33333V6.66667H17.56C17.8 7.08 18 7.53333 18.2133 8H13.3333V9.33333H18.6667C18.8 9.77333 18.8933 10.2267 18.92 10.6667H13.3333V12H18.9333C18.88 12.4667 18.8667 12.92 18.8 13.3333H13.3333V14.6667H18.6667C18.6667 14.6667 18.5867 18.6667 16.6667 18.6667C14.8667 18.6667 15.3333 16.6267 13.3333 16V18.6667C13.3333 19.4 12.7333 20 12 20C11.2667 20 10.6667 19.4 10.6667 18.6667V16C8.66667 16.6267 9.13333 18.6667 7.33333 18.6667C5.41333 18.6667 5.33333 14.6667 5.33333 14.6667H10.6667V13.3333H5.2C5.13333 12.92 5.12 12.4667 5.06667 12H10.6667V10.6667H5.08C5.10667 10.2267 5.21333 9.77333 5.33333 9.33333H10.6667V8H5.78667C6 7.53333 6.2 7.08 6.44 6.66667H10.6667V5.33333C10.6667 4.6 11.2667 4 12 4Z" fill="#0075FF"/>
</svg>
