<svg width="13" height="13" viewBox="0 0 13 13" fill="none" xmlns="http://www.w3.org/2000/svg">
<path d="M12.3127 5.78121L9.85176 7.90473L10.6015 11.0804C10.6429 11.2528 10.6322 11.4336 10.5709 11.6C10.5096 11.7663 10.4003 11.9107 10.257 12.015C10.1136 12.1193 9.94252 12.1788 9.76538 12.1859C9.58823 12.193 9.41296 12.1474 9.26168 12.055L6.49997 10.3553L3.73661 12.055C3.58536 12.1469 3.41029 12.192 3.23345 12.1846C3.05661 12.1773 2.8859 12.1177 2.74283 12.0135C2.59975 11.9093 2.4907 11.7651 2.42941 11.5991C2.36812 11.4331 2.35734 11.2526 2.3984 11.0804L3.1509 7.90473L0.689966 5.78121C0.556144 5.66555 0.459362 5.51303 0.411706 5.3427C0.36405 5.17236 0.367632 4.99176 0.422005 4.82345C0.476378 4.65514 0.579132 4.50658 0.717435 4.39632C0.855737 4.28606 1.02346 4.21899 1.19965 4.20348L4.42622 3.94317L5.6709 0.930979C5.73828 0.766816 5.85294 0.626396 6.00032 0.52757C6.14771 0.428744 6.32115 0.375977 6.4986 0.375977C6.67605 0.375977 6.84949 0.428744 6.99687 0.52757C7.14426 0.626396 7.25892 0.766816 7.32629 0.930979L8.57043 3.94317L11.797 4.20348C11.9735 4.21841 12.1418 4.28511 12.2806 4.39522C12.4194 4.50532 12.5226 4.65395 12.5773 4.82246C12.632 4.99098 12.6358 5.17189 12.5881 5.34254C12.5405 5.51318 12.4435 5.66597 12.3094 5.78176L12.3127 5.78121Z" fill="#FFC000"/>
</svg>
