<svg width="26" height="26" viewBox="0 0 26 26" fill="none" xmlns="http://www.w3.org/2000/svg">
<path d="M24.4631 5.5026L8.56104 9.75801H25.1067C25.3387 9.75801 25.5611 9.84357 25.7251 9.99586C25.8891 10.1482 25.9813 10.3547 25.9813 10.5701V21.9395C25.9813 23.0164 25.5206 24.0492 24.7006 24.8107C23.8806 25.5722 22.7684 26 21.6087 26H5.86756C4.70849 25.9991 3.59722 25.571 2.77796 24.8096C1.95871 24.0482 1.49851 23.0159 1.49851 21.9395V10.6854L1.04901 9.23501C0.889883 8.72258 0.841016 8.18605 0.905205 7.65608C0.969393 7.1261 1.14538 6.61306 1.42311 6.14625C1.70085 5.67944 2.07489 5.26802 2.52387 4.93547C2.97285 4.60292 3.48798 4.35576 4.03983 4.20812L19.1636 0.158988C19.7154 0.0112131 20.2932 -0.0341658 20.8639 0.0254421C21.4346 0.0850499 21.987 0.248477 22.4897 0.50639C22.9924 0.764303 23.4354 1.11165 23.7936 1.52859C24.1517 1.94553 24.4178 2.4239 24.5768 2.93637L25.0613 4.4956C25.0934 4.59819 25.1033 4.70566 25.0906 4.81184C25.0779 4.91802 25.0428 5.02082 24.9872 5.11437C24.9316 5.20791 24.8567 5.29036 24.7668 5.35698C24.6769 5.4236 24.5737 5.47309 24.4631 5.5026ZM2.96769 9.5631L4.02934 9.27887L6.55142 5.22649L4.52256 5.7706C3.85464 5.94954 3.2905 6.36735 2.95404 6.93225C2.61758 7.49716 2.53631 8.16298 2.72807 8.78349L2.96943 9.5631H2.96769ZM6.45173 8.63081L10.1596 7.6368L12.6835 3.58118L8.96682 4.57681C8.95571 4.60006 8.94345 4.62282 8.93009 4.64503L6.45348 8.63244L6.45173 8.63081ZM16.2934 5.99636L18.8155 1.93911L15.0971 2.93474C15.0837 2.96422 15.0686 2.99296 15.0516 3.02083L12.5873 6.99037L16.2952 5.99798L16.2934 5.99636ZM20.9878 1.68898C20.977 1.70888 20.9653 1.72838 20.9528 1.74746L18.7158 5.34668L23.1356 4.16426L22.8925 3.38465C22.7644 2.97076 22.5206 2.59579 22.1857 2.29793C21.8508 2.00006 21.4369 1.78995 20.9861 1.68898H20.9878ZM3.24753 11.3822V21.9395C3.24753 22.5856 3.52393 23.2053 4.01594 23.6622C4.50795 24.1191 5.17525 24.3758 5.87106 24.3758H21.6122C22.308 24.3758 22.9753 24.1191 23.4673 23.6622C23.9593 23.2053 24.2357 22.5856 24.2357 21.9395V11.3822H3.24753Z" fill="#979797"/>
</svg>
