<svg width="19" height="19" viewBox="0 0 19 19" fill="none" xmlns="http://www.w3.org/2000/svg">
<path fill-rule="evenodd" clip-rule="evenodd" d="M9.5 6.21875C8.62976 6.21875 7.79516 6.56445 7.17981 7.17981C6.56445 7.79516 6.21875 8.62976 6.21875 9.5C6.21875 10.3702 6.56445 11.2048 7.17981 11.8202C7.79516 12.4355 8.62976 12.7812 9.5 12.7812C10.3702 12.7812 11.2048 12.4355 11.8202 11.8202C12.4355 11.2048 12.7812 10.3702 12.7812 9.5C12.7812 8.62976 12.4355 7.79516 11.8202 7.17981C11.2048 6.56445 10.3702 6.21875 9.5 6.21875ZM7.53125 9.5C7.53125 8.97785 7.73867 8.4771 8.10788 8.10788C8.4771 7.73867 8.97785 7.53125 9.5 7.53125C10.0221 7.53125 10.5229 7.73867 10.8921 8.10788C11.2613 8.4771 11.4688 8.97785 11.4688 9.5C11.4688 10.0221 11.2613 10.5229 10.8921 10.8921C10.5229 11.2613 10.0221 11.4688 9.5 11.4688C8.97785 11.4688 8.4771 11.2613 8.10788 10.8921C7.73867 10.5229 7.53125 10.0221 7.53125 9.5Z" fill="white"/>
<path fill-rule="evenodd" clip-rule="evenodd" d="M9.47805 0.09375C9.08868 0.09375 8.76405 0.09375 8.49805 0.11125C8.22616 0.122572 7.958 0.178746 7.70443 0.2775C7.41239 0.398328 7.14703 0.575502 6.92348 0.798901C6.69993 1.0223 6.52257 1.28755 6.40155 1.5795C6.27468 1.88575 6.24055 2.2095 6.22655 2.56125C6.22515 2.68989 6.1911 2.81607 6.12758 2.92795C6.06406 3.03983 5.97317 3.13374 5.86343 3.20088C5.75045 3.26257 5.62364 3.29453 5.49492 3.29376C5.3662 3.293 5.23979 3.25953 5.12755 3.1965C4.81605 3.032 4.51855 2.89988 4.18955 2.85613C3.87625 2.81491 3.5579 2.83582 3.25268 2.91764C2.94746 2.99946 2.66135 3.1406 2.41068 3.333C2.19873 3.50352 2.01633 3.7078 1.8708 3.93763C1.72205 4.15987 1.5593 4.44075 1.36505 4.77763L1.34318 4.81612C1.14805 5.153 0.986175 5.43388 0.868925 5.67362C0.746425 5.92387 0.650175 6.17062 0.615175 6.44362C0.5317 7.07624 0.70292 7.71611 1.09118 8.2225C1.2933 8.48588 1.55668 8.6775 1.85418 8.86475C1.96509 8.93032 2.0575 9.02304 2.12271 9.13417C2.18792 9.2453 2.22378 9.37119 2.22693 9.5C2.22378 9.62881 2.18792 9.7547 2.12271 9.86583C2.0575 9.97696 1.96509 10.0697 1.85418 10.1353C1.55668 10.3225 1.29418 10.5141 1.09118 10.7775C0.898777 11.0282 0.757638 11.3143 0.675815 11.6195C0.593993 11.9247 0.57309 12.2431 0.6143 12.5564C0.650175 12.8294 0.74555 13.0761 0.86805 13.3264C0.986175 13.5661 1.14805 13.847 1.34318 14.1839L1.36505 14.2224C1.5593 14.5592 1.72205 14.8401 1.8708 15.0624C2.02568 15.2925 2.19193 15.4999 2.41068 15.6661C2.66128 15.8587 2.94737 16 3.25259 16.0819C3.55781 16.1639 3.87619 16.185 4.18955 16.1439C4.51855 16.1001 4.81605 15.9689 5.12755 15.8035C5.23965 15.7405 5.36592 15.7071 5.49449 15.7064C5.62305 15.7056 5.74971 15.7375 5.86255 15.7991C5.9729 15.8657 6.06437 15.9595 6.12824 16.0714C6.19211 16.1834 6.22625 16.3099 6.22743 16.4388C6.24055 16.7905 6.27468 17.1143 6.40243 17.4205C6.52325 17.7125 6.70043 17.9779 6.92383 18.2014C7.14723 18.425 7.41248 18.6024 7.70443 18.7234C7.95818 18.8284 8.22068 18.8695 8.49805 18.8879C8.76405 18.9062 9.08868 18.9062 9.47805 18.9062H9.5218C9.91118 18.9062 10.2358 18.9062 10.5018 18.8888C10.7801 18.8695 11.0417 18.8284 11.2954 18.7225C11.5875 18.6017 11.8528 18.4245 12.0764 18.2011C12.2999 17.9777 12.4773 17.7125 12.5983 17.4205C12.7252 17.1143 12.7593 16.7905 12.7733 16.4388C12.7746 16.31 12.8085 16.1836 12.8721 16.0716C12.9356 15.9595 13.0266 15.8655 13.1364 15.7983C13.2495 15.7367 13.3763 15.7049 13.505 15.7058C13.6338 15.7067 13.7601 15.7403 13.8723 15.8035C14.1838 15.968 14.4813 16.1001 14.8103 16.143C15.4429 16.2265 16.0828 16.0553 16.5892 15.667C16.8079 15.499 16.9742 15.2925 17.1291 15.0624C17.2778 14.8401 17.4406 14.5592 17.6348 14.2224L17.6567 14.1839C17.8518 13.847 18.0137 13.5661 18.1309 13.3264C18.2534 13.0761 18.3497 12.8285 18.3847 12.5564C18.4682 11.9238 18.2969 11.2839 17.9087 10.7775C17.7066 10.5141 17.4432 10.3225 17.1457 10.1353C17.0348 10.0697 16.9424 9.97696 16.8771 9.86583C16.8119 9.7547 16.7761 9.62881 16.7729 9.5C16.7729 9.25675 16.9059 9.01525 17.1457 8.86475C17.4432 8.6775 17.7057 8.48588 17.9087 8.2225C18.1011 7.97183 18.2422 7.68571 18.324 7.38049C18.4059 7.07527 18.4268 6.75692 18.3856 6.44362C18.3439 6.17475 18.2582 5.91458 18.1318 5.67362C17.9824 5.3829 17.824 5.09693 17.6567 4.81612L17.6348 4.77763C17.475 4.49245 17.3063 4.21232 17.1291 3.93763C16.9835 3.70804 16.8011 3.50405 16.5892 3.33388C16.3386 3.14132 16.0525 3.00003 15.7473 2.91805C15.442 2.83608 15.1237 2.81504 14.8103 2.85613C14.4813 2.89988 14.1838 3.03113 13.8723 3.1965C13.7602 3.25937 13.6339 3.29276 13.5054 3.29352C13.3768 3.29429 13.2502 3.26241 13.1373 3.20088C13.0272 3.13395 12.936 3.04013 12.8722 2.92824C12.8083 2.81635 12.774 2.69006 12.7724 2.56125C12.7593 2.2095 12.7252 1.88575 12.5974 1.5795C12.4766 1.28747 12.2994 1.0221 12.076 0.798551C11.8526 0.575001 11.5874 0.397649 11.2954 0.276625C11.0417 0.171625 10.7792 0.1305 10.5018 0.112125C10.2358 0.09375 9.91118 0.09375 9.5218 0.09375H9.47805ZM8.20668 1.48937C8.27405 1.46137 8.37643 1.436 8.5873 1.42112C8.80343 1.40625 9.08343 1.40625 9.49993 1.40625C9.91643 1.40625 10.1964 1.40625 10.4126 1.42112C10.6234 1.436 10.7258 1.46137 10.7932 1.48937C11.0618 1.6005 11.2744 1.81313 11.3856 2.08175C11.4206 2.16575 11.4494 2.29787 11.4608 2.61025C11.4871 3.30325 11.8449 3.97088 12.4802 4.3375C13.1154 4.705 13.8723 4.6805 14.4857 4.35675C14.7622 4.21063 14.8908 4.1695 14.9818 4.15812C15.2693 4.12014 15.5601 4.19788 15.7903 4.37425C15.8481 4.41888 15.9216 4.495 16.0397 4.67C16.1613 4.85025 16.3013 5.09263 16.5096 5.45312C16.7178 5.81362 16.8569 6.05687 16.9523 6.25112C17.0459 6.441 17.0748 6.5425 17.0836 6.61513C17.1215 6.90262 17.0438 7.19343 16.8674 7.42362C16.8114 7.49625 16.7117 7.58725 16.4474 7.7535C15.8594 8.12275 15.4604 8.76675 15.4604 9.5C15.4604 10.2332 15.8594 10.8773 16.4474 11.2465C16.7117 11.4128 16.8114 11.5037 16.8674 11.5764C17.0442 11.8065 17.1212 12.097 17.0836 12.3849C17.0748 12.4575 17.0451 12.5599 16.9523 12.7489C16.8569 12.944 16.7178 13.1864 16.5096 13.5469C16.3013 13.9074 16.1604 14.1498 16.0397 14.33C15.9216 14.505 15.8481 14.5811 15.7903 14.6257C15.5601 14.8021 15.2693 14.8799 14.9818 14.8419C14.8908 14.8305 14.7631 14.7894 14.4857 14.6433C13.8732 14.3195 13.1154 14.295 12.4802 14.6616C11.8449 15.0291 11.4871 15.6968 11.4608 16.3898C11.4494 16.7021 11.4206 16.8343 11.3856 16.9183C11.3306 17.0511 11.25 17.1718 11.1483 17.2734C11.0467 17.375 10.926 17.4557 10.7932 17.5106C10.7258 17.5386 10.6234 17.564 10.4126 17.5789C10.1964 17.5938 9.91643 17.5938 9.49993 17.5938C9.08343 17.5938 8.80343 17.5938 8.5873 17.5789C8.37643 17.564 8.27405 17.5386 8.20668 17.5106C8.07385 17.4557 7.95317 17.375 7.85153 17.2734C7.74988 17.1718 7.66927 17.0511 7.6143 16.9183C7.5793 16.8343 7.55043 16.7021 7.53905 16.3898C7.5128 15.6968 7.15493 15.0291 6.51968 14.6625C5.88443 14.295 5.12755 14.3195 4.51418 14.6433C4.23768 14.7894 4.10905 14.8305 4.01805 14.8419C3.73056 14.8799 3.43974 14.8021 3.20955 14.6257C3.1518 14.5811 3.0783 14.505 2.96018 14.33C2.7956 14.0738 2.6389 13.8126 2.4903 13.5469C2.28205 13.1864 2.14293 12.9431 2.04755 12.7489C1.95393 12.559 1.92505 12.4575 1.9163 12.3849C1.87831 12.0974 1.95605 11.8066 2.13243 11.5764C2.18843 11.5037 2.28818 11.4128 2.55243 11.2465C3.14043 10.8773 3.53943 10.2332 3.53943 9.5C3.53943 8.76675 3.14043 8.12275 2.55243 7.7535C2.28818 7.58725 2.18843 7.49625 2.13243 7.42362C1.95605 7.19343 1.87831 6.90262 1.9163 6.61513C1.92505 6.5425 1.9548 6.44012 2.04755 6.25112C2.14293 6.056 2.28205 5.81362 2.4903 5.45312C2.69855 5.09263 2.83943 4.85025 2.96018 4.67C3.0783 4.495 3.1518 4.41888 3.20955 4.37425C3.43974 4.19788 3.73056 4.12014 4.01805 4.15812C4.10905 4.1695 4.2368 4.21063 4.51418 4.35675C5.12668 4.6805 5.88443 4.705 6.51968 4.3375C7.15493 3.97088 7.5128 3.30325 7.53905 2.61025C7.55043 2.29787 7.5793 2.16575 7.6143 2.08175C7.72543 1.81313 7.93805 1.6005 8.20668 1.48937Z" fill="white"/>
</svg>
