<svg width="16" height="11" viewBox="0 0 16 11" fill="none" xmlns="http://www.w3.org/2000/svg">
<path fill-rule="evenodd" clip-rule="evenodd" d="M9.65967 0.182819C7.68859 -0.0242241 5.70206 -0.0395736 3.72801 0.136986L2.40967 0.254486C1.88067 0.301931 1.38308 0.526252 0.997221 0.891242C0.611366 1.25623 0.359758 1.74059 0.283008 2.26615C-0.0304932 4.41031 -0.0304932 6.58866 0.283008 8.73282C0.359935 9.25845 0.611708 9.74283 0.997703 10.1078C1.3837 10.4728 1.8814 10.6971 2.41051 10.7445L3.72884 10.8612C5.70287 11.038 7.68939 11.023 9.66051 10.8162L10.1672 10.7628C10.6701 10.7101 11.143 10.4979 11.5168 10.1572C11.8905 9.8166 12.1456 9.36538 12.2447 8.86949L14.7838 10.2178C14.875 10.2662 14.9767 10.2913 15.08 10.2909C15.1832 10.2904 15.2847 10.2643 15.3754 10.2151C15.4661 10.1658 15.5432 10.0948 15.5998 10.0085C15.6564 9.92216 15.6907 9.82315 15.6997 9.72032L15.7205 9.48365C15.9529 6.83235 15.9529 4.16579 15.7205 1.51449L15.6997 1.27782C15.6906 1.17494 15.6562 1.07591 15.5995 0.989584C15.5428 0.903257 15.4656 0.832322 15.3748 0.783123C15.284 0.733924 15.1824 0.707993 15.0792 0.707649C14.9759 0.707305 14.8741 0.732559 14.783 0.781153L12.2447 2.12949C12.1456 1.63359 11.8905 1.18237 11.5168 0.841744C11.143 0.501113 10.6701 0.288917 10.1672 0.236153L9.65967 0.182819ZM3.83967 1.38199C5.73303 1.21273 7.63834 1.22752 9.52884 1.42615L10.0355 1.47949C10.2831 1.5057 10.5149 1.61352 10.6944 1.78597C10.8739 1.95841 10.991 2.18569 11.0272 2.43199C11.3255 4.46615 11.3255 6.53199 11.0272 8.56699C10.991 8.81329 10.8739 9.04056 10.6944 9.21301C10.5149 9.38545 10.2831 9.49327 10.0355 9.51949L9.52884 9.57282C7.63834 9.77147 5.73303 9.78626 3.83967 9.61699L2.52134 9.49865C2.27219 9.47642 2.03778 9.37093 1.85591 9.19919C1.67403 9.02745 1.5553 8.79946 1.51884 8.55199C1.22287 6.52775 1.22287 4.47123 1.51884 2.44699C1.55499 2.1993 1.6736 1.97104 1.85552 1.79911C2.03743 1.62717 2.27201 1.52161 2.52134 1.49949L3.83967 1.38199ZM12.408 3.45782C12.5322 4.81615 12.5322 6.18282 12.408 7.54115L14.5305 8.66865C14.6816 6.55858 14.6816 4.4404 14.5305 2.33032L12.408 3.45782Z" fill="#0075FF"/>
</svg>
