<svg width="9" height="8" viewBox="0 0 9 8" fill="none" xmlns="http://www.w3.org/2000/svg">
<path d="M0.977326 4.17479L3.49686 4.87557C3.52693 4.88425 3.55431 4.90041 3.57645 4.92254C3.59858 4.94467 3.61474 4.97206 3.62342 5.00213L4.3242 7.52166C4.33511 7.55986 4.35817 7.59347 4.38989 7.61739C4.42161 7.64132 4.46025 7.65426 4.49998 7.65426C4.53971 7.65426 4.57836 7.64132 4.61008 7.61739C4.64179 7.59347 4.66485 7.55986 4.67576 7.52166L5.37654 5.00213C5.38522 4.97206 5.40138 4.94467 5.42352 4.92254C5.44565 4.90041 5.47303 4.88425 5.50311 4.87557L8.02264 4.17479C8.06084 4.16387 8.09445 4.14082 8.11837 4.1091C8.1423 4.07738 8.15524 4.03873 8.15524 3.99901C8.15524 3.95928 8.1423 3.92063 8.11837 3.88891C8.09445 3.8572 8.06084 3.83414 8.02264 3.82322L5.50311 3.12244C5.47303 3.11377 5.44565 3.0976 5.42352 3.07547C5.40138 3.05334 5.38522 3.02595 5.37654 2.99588L4.67576 0.476349C4.66485 0.438149 4.64179 0.404543 4.61008 0.380617C4.57836 0.356692 4.53971 0.34375 4.49998 0.34375C4.46025 0.34375 4.42161 0.356692 4.38989 0.380617C4.35817 0.404543 4.33511 0.438149 4.3242 0.476349L3.62342 2.99588C3.61474 3.02595 3.59858 3.05334 3.57645 3.07547C3.55431 3.0976 3.52693 3.11377 3.49686 3.12244L0.977326 3.82322C0.939125 3.83414 0.905519 3.8572 0.881594 3.88891C0.857669 3.92063 0.844727 3.95928 0.844727 3.99901C0.844727 4.03873 0.857669 4.07738 0.881594 4.1091C0.905519 4.14082 0.939125 4.16387 0.977326 4.17479Z" fill="url(#paint0_linear_436_37563)" stroke="#FCD34D" stroke-width="0.09375" stroke-linecap="round" stroke-linejoin="round"/>
<defs>
<linearGradient id="paint0_linear_436_37563" x1="2.90389" y1="1.23572" x2="6.09608" y2="6.76229" gradientUnits="userSpaceOnUse">
<stop stop-color="#FCD966"/>
<stop offset="0.5" stop-color="#FCD966"/>
<stop offset="1" stop-color="#FCCD34"/>
</linearGradient>
</defs>
</svg>
